<svg width="178" height="48" viewBox="0 0 178 48" fill="none" xmlns="http://www.w3.org/2000/svg">
<path d="M143.855 18.2769L141.358 20.5614C140.582 19.5526 139.47 19.0812 138.524 19.0812C137.714 19.0812 136.973 19.5526 136.973 20.4921C136.973 21.2305 137.581 21.7679 138.59 22.1388C140.916 22.9777 144.727 23.7196 144.727 27.3492C144.727 30.4069 142.366 32.9965 138.691 32.9965C135.151 32.9965 132.79 30.5074 131.948 28.4239L135.286 26.642C135.895 28.2887 137.039 29.4327 138.691 29.4327C139.974 29.4327 140.781 28.8607 140.781 27.6162C140.781 26.2052 138.59 25.9002 136.531 25.0266C134.678 24.2535 133.092 23.0783 133.092 20.454C133.092 17.8331 135.217 15.5139 138.52 15.5139C140.819 15.5208 142.811 16.6302 143.855 18.2769Z" fill="#231F20"/>
<path d="M82.9635 20.2634C83.5025 17.4796 85.9575 15.5695 89.4209 15.5695C93.4545 15.5695 96.5493 17.2439 96.5493 22.6415V32.7331H93.1207L92.6826 30.5872C91.5072 32.0294 89.8903 33.0001 87.4701 33.0001C84.577 33.0001 82.3271 31.2251 82.3271 27.8728C82.3271 24.5205 85.2863 22.3434 89.5565 22.3434H92.38V21.605C92.38 19.7295 90.9683 19.1228 89.4209 19.1228C88.2455 19.1228 87.0319 19.4903 86.4964 21.0677L82.9635 20.2634ZM88.4437 29.4467C90.3597 29.4467 92.3766 28.1397 92.3766 25.9592V25.6229H89.5843C87.8039 25.6229 86.6912 26.292 86.6912 27.8035C86.6946 28.6112 87.2684 29.4467 88.4437 29.4467Z" fill="#231F20"/>
<path d="M100.326 32.7331V15.8398H104.495V18.5889C105.705 16.6129 107.59 15.5729 109.506 15.5729C110.246 15.5729 110.883 15.7081 111.557 15.9091L110.785 19.7641C110.281 19.4625 109.742 19.2961 109.036 19.2961C106.616 19.2961 104.498 21.2721 104.498 26.7391V32.74H100.326V32.7331Z" fill="#231F20"/>
<path d="M120.48 15.5694C122.194 15.5694 123.843 16.4395 124.583 17.379V9H128.753V32.7331H124.583V30.9893C124.114 31.8595 122.567 33 120.48 33C115.368 33 112.747 29.4813 112.747 24.2847C112.747 19.0881 115.368 15.5694 120.48 15.5694ZM121.05 29.4466C123.238 29.4466 124.952 27.637 124.952 24.2847C124.952 20.9324 123.238 19.1228 121.05 19.1228C118.863 19.1228 117.118 20.9324 117.118 24.2847C117.118 27.637 118.863 29.4466 121.05 29.4466Z" fill="#231F20"/>
<path d="M150.176 27.3042C151.79 27.3042 153 28.5106 153 30.1192C153 31.7277 151.79 32.9341 150.176 32.9341C148.563 32.9341 147.353 31.7277 147.353 30.1192C147.353 28.5106 148.563 27.3042 150.176 27.3042Z" fill="#231F20"/>
<path d="M1.63982 20.2634C2.17881 17.4796 4.63378 15.5695 8.09718 15.5695C12.1309 15.5695 15.2257 17.2439 15.2257 22.6415V32.7331H11.797L11.3589 30.5872C10.1836 32.0294 8.56662 33.0001 6.14641 33.0001C3.25329 33.0001 1 31.2251 1 27.8728C1 24.5205 3.95919 22.3434 8.22932 22.3434H11.0529V21.605C11.0529 19.7295 9.64111 19.1228 8.0937 19.1228C6.91837 19.1228 5.7048 19.4903 5.16929 21.0677L1.63982 20.2634ZM7.12006 29.4467C9.03605 29.4467 11.0529 28.1397 11.0529 25.9592V25.6229H8.26061C6.48023 25.6229 5.3675 26.292 5.3675 27.8035C5.37097 28.6112 5.94125 29.4467 7.12006 29.4467Z" fill="#231F20"/>
<path d="M40.9611 15.8363L35.547 32.733H31.8471L28.9227 21.806L25.9983 32.733H22.2984L16.8843 15.8363H21.0883L24.1136 27.4359L26.9719 15.8363H30.8735L33.7318 27.4359L36.7571 15.8363H40.9611Z" fill="#231F20"/>
<path d="M56.9082 15.8363L53.883 27.4359L51.0246 15.8363H47.1231L44.2648 27.4359L41.8863 20.7001L41.6394 21.4732L40.252 25.8135L42.4496 32.733H46.1495L49.0739 21.806L51.9983 32.733H55.6981L61.1123 15.8363H56.9082Z" fill="#231F20"/>
<path d="M77.0591 15.8363L74.0339 27.4359L71.1755 15.8363H67.274L64.4191 27.4359L62.0406 20.7001L61.7903 21.4732L60.4028 25.8135L62.6005 32.733H66.3003L69.2248 21.806L72.1526 32.733H75.849L81.2632 15.8363H77.0591Z" fill="#231F20"/>
</svg>
