<svg width="48" height="48" viewBox="0 0 48 48" fill="none" xmlns="http://www.w3.org/2000/svg">
<path d="M11.056 28.272V15.408H8.776V27.936C8.776 28.88 8.576 29.632 8.176 30.192C7.792 30.752 7.08 31.032 6.04 31.032C5.48 31.032 5.016 30.952 4.648 30.792C4.296 30.616 4.016 30.376 3.808 30.072C3.616 29.768 3.48 29.408 3.4 28.992C3.32 28.576 3.28 28.12 3.28 27.624V26.904H1L1 27.96C1 29.592 1.432 30.832 2.296 31.68C3.16 32.512 4.392 32.928 5.992 32.928C6.952 32.928 7.752 32.8 8.392 32.544C9.048 32.272 9.568 31.92 9.952 31.488C10.352 31.04 10.632 30.536 10.792 29.976C10.968 29.416 11.056 28.848 11.056 28.272Z" fill="white"/>
<path d="M17.0693 22.776V17.328H21.6293C22.1253 17.328 22.5893 17.36 23.0213 17.424C23.4693 17.472 23.8613 17.592 24.1973 17.784C24.5333 17.976 24.7973 18.248 24.9893 18.6C25.1813 18.952 25.2773 19.432 25.2773 20.04C25.2773 20.952 24.9893 21.64 24.4133 22.104C23.8533 22.552 22.9253 22.776 21.6293 22.776H17.0693ZM14.7893 15.408L14.7893 32.544H23.0693C23.9173 32.544 24.6613 32.408 25.3013 32.136C25.9573 31.848 26.5013 31.48 26.9333 31.032C27.3813 30.568 27.7173 30.04 27.9413 29.448C28.1653 28.856 28.2773 28.248 28.2773 27.624C28.2773 26.568 27.9973 25.672 27.4373 24.936C26.8773 24.2 26.0693 23.72 25.0133 23.496V23.448C25.8293 23.128 26.4533 22.64 26.8853 21.984C27.3333 21.312 27.5573 20.52 27.5573 19.608C27.5573 18.744 27.3573 18.016 26.9573 17.424C26.5733 16.832 26.1013 16.368 25.5413 16.032C25.2853 15.872 24.9733 15.752 24.6053 15.672C24.2533 15.592 23.8693 15.536 23.4533 15.504C23.0373 15.456 22.6133 15.432 22.1813 15.432C21.7653 15.416 21.3733 15.408 21.0053 15.408L14.7893 15.408ZM17.0693 30.624V24.696H22.2773C22.7573 24.696 23.2213 24.744 23.6693 24.84C24.1173 24.92 24.5093 25.072 24.8453 25.296C25.1973 25.504 25.4773 25.792 25.6853 26.16C25.8933 26.528 25.9973 26.992 25.9973 27.552C25.9973 28.512 25.7093 29.264 25.1333 29.808C24.5733 30.352 23.7893 30.624 22.7813 30.624H17.0693Z" fill="white"/>
<path d="M37.099 23.376V20.04L39.259 20.04C39.531 20.04 39.803 20.064 40.075 20.112C40.363 20.144 40.611 20.216 40.819 20.328C41.043 20.44 41.219 20.6 41.347 20.808C41.491 21.016 41.563 21.296 41.563 21.648C41.563 22.064 41.483 22.392 41.323 22.632C41.179 22.856 40.979 23.024 40.723 23.136C40.467 23.248 40.171 23.32 39.835 23.352C39.515 23.368 39.171 23.376 38.803 23.376H37.099ZM35.467 18.72V29.208H37.099V24.696H38.827L41.683 29.208H43.435L40.435 24.576C41.219 24.496 41.875 24.24 42.403 23.808C42.931 23.36 43.195 22.664 43.195 21.72C43.195 20.712 42.891 19.96 42.283 19.464C41.691 18.968 40.771 18.72 39.523 18.72H35.467ZM31.555 23.928C31.555 22.856 31.739 21.856 32.107 20.928C32.491 20 33.011 19.2 33.667 18.528C34.339 17.84 35.123 17.304 36.019 16.92C36.931 16.52 37.915 16.32 38.971 16.32C40.011 16.32 40.979 16.52 41.875 16.92C42.771 17.304 43.547 17.84 44.203 18.528C44.875 19.2 45.395 20 45.763 20.928C46.147 21.856 46.339 22.856 46.339 23.928C46.339 25.032 46.147 26.056 45.763 27C45.395 27.928 44.875 28.736 44.203 29.424C43.547 30.112 42.771 30.656 41.875 31.056C40.979 31.44 40.011 31.632 38.971 31.632C37.915 31.632 36.931 31.44 36.019 31.056C35.123 30.656 34.339 30.112 33.667 29.424C33.011 28.736 32.491 27.928 32.107 27C31.739 26.056 31.555 25.032 31.555 23.928ZM29.923 23.928C29.923 25.224 30.163 26.424 30.643 27.528C31.123 28.616 31.771 29.568 32.587 30.384C33.419 31.184 34.379 31.808 35.467 32.256C36.571 32.704 37.739 32.928 38.971 32.928C40.203 32.928 41.363 32.704 42.451 32.256C43.539 31.808 44.491 31.184 45.307 30.384C46.123 29.568 46.771 28.616 47.251 27.528C47.731 26.424 47.971 25.224 47.971 23.928C47.971 22.664 47.731 21.488 47.251 20.4C46.771 19.312 46.123 18.368 45.307 17.568C44.491 16.768 43.539 16.144 42.451 15.696C41.363 15.232 40.203 15 38.971 15C37.739 15 36.571 15.232 35.467 15.696C34.379 16.144 33.419 16.768 32.587 17.568C31.771 18.368 31.123 19.312 30.643 20.4C30.163 21.488 29.923 22.664 29.923 23.928Z" fill="white"/>
</svg>
