<svg width="162" height="23" viewBox="0 0 162 23" fill="none" xmlns="http://www.w3.org/2000/svg">
<path d="M10.584 13.728L10.584 0.863999H8.304L8.304 13.392C8.304 14.336 8.104 15.088 7.704 15.648C7.32 16.208 6.608 16.488 5.568 16.488C5.008 16.488 4.544 16.408 4.176 16.248C3.824 16.072 3.544 15.832 3.336 15.528C3.144 15.224 3.008 14.864 2.928 14.448C2.848 14.032 2.808 13.576 2.808 13.08V12.36H0.528V13.416C0.528 15.048 0.96 16.288 1.824 17.136C2.688 17.968 3.92 18.384 5.52 18.384C6.48 18.384 7.28 18.256 7.92 18C8.576 17.728 9.096 17.376 9.48 16.944C9.88 16.496 10.16 15.992 10.32 15.432C10.496 14.872 10.584 14.304 10.584 13.728ZM15.4693 11.808C15.4693 11.056 15.5653 10.392 15.7573 9.816C15.9653 9.224 16.2453 8.728 16.5973 8.328C16.9493 7.928 17.3573 7.624 17.8213 7.416C18.3013 7.208 18.8053 7.104 19.3333 7.104C19.8613 7.104 20.3573 7.208 20.8213 7.416C21.3013 7.624 21.7173 7.928 22.0693 8.328C22.4213 8.728 22.6933 9.224 22.8853 9.816C23.0933 10.392 23.1973 11.056 23.1973 11.808C23.1973 12.56 23.0933 13.232 22.8853 13.824C22.6933 14.4 22.4213 14.888 22.0693 15.288C21.7173 15.672 21.3013 15.968 20.8213 16.176C20.3573 16.384 19.8613 16.488 19.3333 16.488C18.8053 16.488 18.3013 16.384 17.8213 16.176C17.3573 15.968 16.9493 15.672 16.5973 15.288C16.2453 14.888 15.9653 14.4 15.7573 13.824C15.5653 13.232 15.4693 12.56 15.4693 11.808ZM13.3093 11.808C13.3093 12.72 13.4373 13.568 13.6933 14.352C13.9493 15.136 14.3333 15.824 14.8453 16.416C15.3573 16.992 15.9893 17.448 16.7413 17.784C17.4933 18.104 18.3573 18.264 19.3333 18.264C20.3253 18.264 21.1893 18.104 21.9253 17.784C22.6773 17.448 23.3093 16.992 23.8213 16.416C24.3333 15.824 24.7173 15.136 24.9733 14.352C25.2293 13.568 25.3573 12.72 25.3573 11.808C25.3573 10.896 25.2293 10.048 24.9733 9.264C24.7173 8.464 24.3333 7.776 23.8213 7.2C23.3093 6.608 22.6773 6.144 21.9253 5.808C21.1893 5.472 20.3253 5.304 19.3333 5.304C18.3573 5.304 17.4933 5.472 16.7413 5.808C15.9893 6.144 15.3573 6.608 14.8453 7.2C14.3333 7.776 13.9493 8.464 13.6933 9.264C13.4373 10.048 13.3093 10.896 13.3093 11.808ZM29.0106 14.088L26.9706 14.088C27.0026 14.856 27.1626 15.512 27.4506 16.056C27.7386 16.584 28.1226 17.016 28.6026 17.352C29.0826 17.672 29.6346 17.904 30.2586 18.048C30.8826 18.192 31.5386 18.264 32.2266 18.264C32.8506 18.264 33.4746 18.2 34.0986 18.072C34.7386 17.96 35.3066 17.752 35.8026 17.448C36.3146 17.144 36.7226 16.744 37.0266 16.248C37.3466 15.752 37.5066 15.128 37.5066 14.376C37.5066 13.784 37.3866 13.288 37.1466 12.888C36.9226 12.488 36.6186 12.16 36.2346 11.904C35.8666 11.632 35.4346 11.416 34.9386 11.256C34.4586 11.096 33.9626 10.96 33.4506 10.848C32.9706 10.736 32.4906 10.632 32.0106 10.536C31.5306 10.424 31.0986 10.296 30.7146 10.152C30.3306 9.992 30.0106 9.8 29.7546 9.576C29.5146 9.336 29.3946 9.04 29.3946 8.688C29.3946 8.368 29.4746 8.112 29.6346 7.92C29.7946 7.712 30.0026 7.552 30.2586 7.44C30.5146 7.312 30.7946 7.224 31.0986 7.176C31.4186 7.128 31.7306 7.104 32.0346 7.104C32.3706 7.104 32.6986 7.144 33.0186 7.224C33.3546 7.288 33.6586 7.4 33.9306 7.56C34.2026 7.72 34.4266 7.936 34.6026 8.208C34.7786 8.464 34.8826 8.792 34.9146 9.192H36.9546C36.9066 8.44 36.7466 7.816 36.4746 7.32C36.2026 6.808 35.8346 6.408 35.3706 6.12C34.9226 5.816 34.4026 5.608 33.8106 5.496C33.2186 5.368 32.5706 5.304 31.8666 5.304C31.3226 5.304 30.7706 5.376 30.2106 5.52C29.6666 5.648 29.1706 5.856 28.7226 6.144C28.2906 6.416 27.9306 6.776 27.6426 7.224C27.3706 7.672 27.2346 8.208 27.2346 8.832C27.2346 9.632 27.4346 10.256 27.8346 10.704C28.2346 11.152 28.7306 11.504 29.3226 11.76C29.9306 12 30.5866 12.192 31.2906 12.336C31.9946 12.464 32.6426 12.616 33.2346 12.792C33.8426 12.952 34.3466 13.168 34.7466 13.44C35.1466 13.712 35.3466 14.112 35.3466 14.64C35.3466 15.024 35.2506 15.344 35.0586 15.6C34.8666 15.84 34.6186 16.024 34.3146 16.152C34.0266 16.28 33.7066 16.368 33.3546 16.416C33.0026 16.464 32.6666 16.488 32.3466 16.488C31.9306 16.488 31.5226 16.448 31.1226 16.368C30.7386 16.288 30.3866 16.16 30.0666 15.984C29.7626 15.792 29.5146 15.544 29.3226 15.24C29.1306 14.92 29.0266 14.536 29.0106 14.088ZM48.3786 10.608L41.2506 10.608C41.2826 10.128 41.3866 9.68 41.5626 9.264C41.7386 8.832 41.9786 8.456 42.2826 8.136C42.5866 7.816 42.9466 7.568 43.3626 7.392C43.7946 7.2 44.2746 7.104 44.8026 7.104C45.3146 7.104 45.7786 7.2 46.1946 7.392C46.6266 7.568 46.9946 7.816 47.2986 8.136C47.6186 8.44 47.8666 8.808 48.0426 9.24C48.2346 9.672 48.3466 10.128 48.3786 10.608ZM50.3466 14.064H48.3306C48.1546 14.88 47.7866 15.488 47.2266 15.888C46.6826 16.288 45.9786 16.488 45.1146 16.488C44.4426 16.488 43.8586 16.376 43.3626 16.152C42.8666 15.928 42.4586 15.632 42.1386 15.264C41.8186 14.88 41.5866 14.448 41.4426 13.968C41.2986 13.472 41.2346 12.952 41.2506 12.408H50.5386C50.5706 11.656 50.4986 10.864 50.3226 10.032C50.1626 9.2 49.8586 8.432 49.4106 7.728C48.9786 7.024 48.3946 6.448 47.6586 6C46.9386 5.536 46.0266 5.304 44.9226 5.304C44.0746 5.304 43.2906 5.464 42.5706 5.784C41.8666 6.104 41.2506 6.552 40.7226 7.128C40.2106 7.704 39.8106 8.384 39.5226 9.168C39.2346 9.952 39.0906 10.816 39.0906 11.76C39.1226 12.704 39.2586 13.576 39.4986 14.376C39.7546 15.176 40.1306 15.864 40.6266 16.44C41.1226 17.016 41.7306 17.464 42.4506 17.784C43.1866 18.104 44.0506 18.264 45.0426 18.264C46.4506 18.264 47.6186 17.912 48.5466 17.208C49.4746 16.504 50.0746 15.456 50.3466 14.064ZM52.7252 5.592V22.728H54.7652V16.344H54.8132C55.0372 16.712 55.3092 17.024 55.6292 17.28C55.9652 17.52 56.3172 17.712 56.6852 17.856C57.0532 18 57.4212 18.104 57.7892 18.168C58.1732 18.232 58.5172 18.264 58.8212 18.264C59.7652 18.264 60.5892 18.096 61.2932 17.76C62.0132 17.424 62.6052 16.968 63.0692 16.392C63.5492 15.8 63.9012 15.112 64.1252 14.328C64.3652 13.544 64.4852 12.712 64.4852 11.832C64.4852 10.952 64.3652 10.12 64.1252 9.336C63.8852 8.552 63.5252 7.864 63.0452 7.272C62.5812 6.664 61.9892 6.184 61.2692 5.832C60.5652 5.48 59.7332 5.304 58.7732 5.304C57.9092 5.304 57.1172 5.464 56.3972 5.784C55.6772 6.088 55.1492 6.584 54.8132 7.272H54.7652V5.592H52.7252ZM62.3252 11.688C62.3252 12.296 62.2612 12.888 62.1332 13.464C62.0052 14.04 61.7972 14.552 61.5092 15C61.2212 15.448 60.8372 15.808 60.3572 16.08C59.8932 16.352 59.3092 16.488 58.6052 16.488C57.9012 16.488 57.3012 16.36 56.8052 16.104C56.3092 15.832 55.9012 15.48 55.5812 15.048C55.2772 14.616 55.0532 14.12 54.9092 13.56C54.7652 12.984 54.6932 12.392 54.6932 11.784C54.6932 11.208 54.7572 10.64 54.8852 10.08C55.0292 9.52 55.2532 9.024 55.5572 8.592C55.8612 8.144 56.2532 7.784 56.7332 7.512C57.2132 7.24 57.7972 7.104 58.4852 7.104C59.1412 7.104 59.7092 7.232 60.1892 7.488C60.6852 7.744 61.0852 8.088 61.3892 8.52C61.7092 8.952 61.9412 9.448 62.0852 10.008C62.2452 10.552 62.3252 11.112 62.3252 11.688ZM66.8798 0.863999V18H68.9198V10.992C68.9198 10.432 68.9918 9.92 69.1358 9.456C69.2958 8.976 69.5278 8.56 69.8318 8.208C70.1358 7.856 70.5118 7.584 70.9598 7.392C71.4238 7.2 71.9678 7.104 72.5918 7.104C73.3758 7.104 73.9918 7.328 74.4398 7.776C74.8878 8.224 75.1118 8.832 75.1118 9.6V18H77.1518V9.84C77.1518 9.168 77.0798 8.56 76.9358 8.016C76.8078 7.456 76.5758 6.976 76.2398 6.576C75.9038 6.176 75.4638 5.864 74.9198 5.64C74.3758 5.416 73.6958 5.304 72.8798 5.304C72.5118 5.304 72.1278 5.344 71.7278 5.424C71.3438 5.504 70.9678 5.632 70.5998 5.808C70.2478 5.968 69.9278 6.184 69.6398 6.456C69.3518 6.712 69.1278 7.032 68.9678 7.416H68.9198V0.863999H66.8798ZM89.5114 8.232V2.784H94.0714C94.5674 2.784 95.0314 2.816 95.4634 2.88C95.9114 2.928 96.3034 3.048 96.6394 3.24C96.9754 3.432 97.2394 3.704 97.4314 4.056C97.6234 4.408 97.7194 4.888 97.7194 5.496C97.7194 6.408 97.4314 7.096 96.8554 7.56C96.2954 8.008 95.3674 8.232 94.0714 8.232H89.5114ZM87.2314 0.863999V18H95.5114C96.3594 18 97.1034 17.864 97.7434 17.592C98.3994 17.304 98.9434 16.936 99.3754 16.488C99.8234 16.024 100.159 15.496 100.383 14.904C100.607 14.312 100.719 13.704 100.719 13.08C100.719 12.024 100.439 11.128 99.8794 10.392C99.3194 9.656 98.5114 9.176 97.4554 8.952V8.904C98.2714 8.584 98.8954 8.096 99.3274 7.44C99.7754 6.768 99.9994 5.976 99.9994 5.064C99.9994 4.2 99.7994 3.472 99.3994 2.88C99.0154 2.288 98.5434 1.824 97.9834 1.488C97.7274 1.328 97.4154 1.208 97.0474 1.128C96.6954 1.048 96.3114 0.992 95.8954 0.959999C95.4794 0.911999 95.0554 0.887999 94.6234 0.887999C94.2074 0.871999 93.8154 0.863999 93.4474 0.863999H87.2314ZM89.5114 16.08V10.152H94.7194C95.1994 10.152 95.6634 10.2 96.1114 10.296C96.5594 10.376 96.9514 10.528 97.2874 10.752C97.6394 10.96 97.9194 11.248 98.1274 11.616C98.3354 11.984 98.4394 12.448 98.4394 13.008C98.4394 13.968 98.1514 14.72 97.5754 15.264C97.0154 15.808 96.2314 16.08 95.2234 16.08H89.5114ZM111.941 10.608H104.813C104.845 10.128 104.949 9.68 105.125 9.264C105.301 8.832 105.541 8.456 105.845 8.136C106.149 7.816 106.509 7.568 106.925 7.392C107.357 7.2 107.837 7.104 108.365 7.104C108.877 7.104 109.341 7.2 109.757 7.392C110.189 7.568 110.557 7.816 110.861 8.136C111.181 8.44 111.429 8.808 111.605 9.24C111.797 9.672 111.909 10.128 111.941 10.608ZM113.909 14.064H111.893C111.717 14.88 111.349 15.488 110.789 15.888C110.245 16.288 109.541 16.488 108.677 16.488C108.005 16.488 107.421 16.376 106.925 16.152C106.429 15.928 106.021 15.632 105.701 15.264C105.381 14.88 105.149 14.448 105.005 13.968C104.861 13.472 104.797 12.952 104.813 12.408H114.101C114.133 11.656 114.061 10.864 113.885 10.032C113.725 9.2 113.421 8.432 112.973 7.728C112.541 7.024 111.957 6.448 111.221 6C110.501 5.536 109.589 5.304 108.485 5.304C107.637 5.304 106.853 5.464 106.133 5.784C105.429 6.104 104.813 6.552 104.285 7.128C103.773 7.704 103.373 8.384 103.085 9.168C102.797 9.952 102.653 10.816 102.653 11.76C102.685 12.704 102.821 13.576 103.061 14.376C103.317 15.176 103.693 15.864 104.189 16.44C104.685 17.016 105.293 17.464 106.013 17.784C106.749 18.104 107.613 18.264 108.605 18.264C110.013 18.264 111.181 17.912 112.109 17.208C113.037 16.504 113.637 15.456 113.909 14.064ZM116.144 5.592V18H118.184V12.48C118.184 11.68 118.264 10.976 118.424 10.368C118.584 9.744 118.84 9.216 119.192 8.784C119.544 8.352 120.008 8.024 120.584 7.8C121.16 7.576 121.856 7.464 122.672 7.464V5.304C121.568 5.272 120.656 5.496 119.936 5.976C119.216 6.456 118.608 7.2 118.112 8.208H118.064V5.592H116.144ZM124.136 5.592V18H126.176V12.48C126.176 11.68 126.256 10.976 126.416 10.368C126.576 9.744 126.832 9.216 127.184 8.784C127.536 8.352 128 8.024 128.576 7.8C129.152 7.576 129.848 7.464 130.664 7.464V5.304C129.56 5.272 128.648 5.496 127.928 5.976C127.208 6.456 126.6 7.2 126.104 8.208H126.056V5.592H124.136ZM137.072 19.656C136.832 20.264 136.592 20.776 136.352 21.192C136.128 21.608 135.872 21.944 135.584 22.2C135.312 22.472 135 22.664 134.648 22.776C134.312 22.904 133.92 22.968 133.472 22.968C133.232 22.968 132.992 22.952 132.752 22.92C132.512 22.888 132.28 22.832 132.056 22.752V20.88C132.232 20.96 132.432 21.024 132.656 21.072C132.896 21.136 133.096 21.168 133.256 21.168C133.672 21.168 134.016 21.064 134.288 20.856C134.576 20.664 134.792 20.384 134.936 20.016L135.776 17.928L130.856 5.592H133.16L136.784 15.744H136.832L140.312 5.592H142.472L137.072 19.656ZM150.416 8.832V5.496H152.576C152.848 5.496 153.12 5.52 153.392 5.568C153.68 5.6 153.928 5.672 154.136 5.784C154.36 5.896 154.536 6.056 154.664 6.264C154.808 6.472 154.88 6.752 154.88 7.104C154.88 7.52 154.8 7.848 154.64 8.088C154.496 8.312 154.296 8.48 154.04 8.592C153.784 8.704 153.488 8.776 153.152 8.808C152.832 8.824 152.488 8.832 152.12 8.832H150.416ZM148.784 4.176V14.664H150.416V10.152H152.144L155 14.664H156.752L153.752 10.032C154.536 9.952 155.192 9.696 155.72 9.264C156.248 8.816 156.512 8.12 156.512 7.176C156.512 6.168 156.208 5.416 155.6 4.92C155.008 4.424 154.088 4.176 152.84 4.176H148.784ZM144.872 9.384C144.872 8.312 145.056 7.312 145.424 6.384C145.808 5.456 146.328 4.656 146.984 3.984C147.656 3.296 148.44 2.76 149.336 2.376C150.248 1.976 151.232 1.776 152.288 1.776C153.328 1.776 154.296 1.976 155.192 2.376C156.088 2.76 156.864 3.296 157.52 3.984C158.192 4.656 158.712 5.456 159.08 6.384C159.464 7.312 159.656 8.312 159.656 9.384C159.656 10.488 159.464 11.512 159.08 12.456C158.712 13.384 158.192 14.192 157.52 14.88C156.864 15.568 156.088 16.112 155.192 16.512C154.296 16.896 153.328 17.088 152.288 17.088C151.232 17.088 150.248 16.896 149.336 16.512C148.44 16.112 147.656 15.568 146.984 14.88C146.328 14.192 145.808 13.384 145.424 12.456C145.056 11.512 144.872 10.488 144.872 9.384ZM143.24 9.384C143.24 10.68 143.48 11.88 143.96 12.984C144.44 14.072 145.088 15.024 145.904 15.84C146.736 16.64 147.696 17.264 148.784 17.712C149.888 18.16 151.056 18.384 152.288 18.384C153.52 18.384 154.68 18.16 155.768 17.712C156.856 17.264 157.808 16.64 158.624 15.84C159.44 15.024 160.088 14.072 160.568 12.984C161.048 11.88 161.288 10.68 161.288 9.384C161.288 8.12 161.048 6.944 160.568 5.856C160.088 4.768 159.44 3.824 158.624 3.024C157.808 2.224 156.856 1.6 155.768 1.152C154.68 0.688 153.52 0.456 152.288 0.456C151.056 0.456 149.888 0.688 148.784 1.152C147.696 1.6 146.736 2.224 145.904 3.024C145.088 3.824 144.44 4.768 143.96 5.856C143.48 6.944 143.24 8.12 143.24 9.384Z" fill="#292929"/>
</svg>
