<svg width="220" height="220" viewBox="0 0 220 220" fill="none" xmlns="http://www.w3.org/2000/svg">
<path d="M130.563 10.8632L129.963 3.2432H129.943L126.583 10.1232L125.383 9.8932L124.803 0.843201L125.973 1.0632L126.313 8.5632H126.333L129.623 1.7532L130.873 1.9832L131.423 9.5232H131.443L134.553 2.6732L135.703 2.8932L131.763 11.0832L130.563 10.8632Z" fill="black"/>
<path d="M140.563 4.33321L141.453 13.7232L140.213 13.3732L140.013 10.5632L136.443 9.54321L134.773 11.8132L133.623 11.4832L139.323 3.97321L140.563 4.33321ZM139.933 9.51321L139.653 5.17321L139.633 5.16321L137.083 8.6932L139.933 9.51321Z" fill="black"/>
<path d="M142.773 5.98322L143.103 5.05322L149.723 7.39322L149.393 8.32322L146.633 7.34322L144.033 14.6932L142.933 14.3032L145.533 6.95322L142.773 5.98322Z" fill="black"/>
<path d="M155.473 11.2432C155.193 10.7732 154.773 10.4232 154.203 10.1732C153.723 9.96322 153.273 9.86322 152.853 9.89322C152.433 9.92322 152.043 10.0432 151.683 10.2432C151.323 10.4532 151.013 10.7232 150.733 11.0632C150.453 11.4032 150.223 11.7832 150.033 12.2032C149.833 12.6632 149.693 13.1132 149.613 13.5732C149.533 14.0332 149.543 14.4532 149.623 14.8632C149.703 15.2732 149.883 15.6332 150.153 15.9632C150.413 16.2932 150.793 16.5732 151.273 16.7832C151.623 16.9432 151.963 17.0232 152.293 17.0232C152.623 17.0232 152.923 16.9732 153.213 16.8532C153.503 16.7332 153.763 16.5632 154.003 16.3232C154.243 16.0932 154.443 15.8132 154.613 15.4932L155.683 15.9632C155.133 16.9332 154.433 17.5632 153.593 17.8632C152.753 18.1632 151.813 18.0832 150.793 17.6232C150.173 17.3432 149.673 17.0032 149.303 16.5832C148.933 16.1632 148.683 15.6932 148.533 15.1832C148.383 14.6732 148.363 14.1232 148.433 13.5532C148.503 12.9732 148.673 12.3932 148.933 11.8132C149.193 11.2332 149.523 10.7132 149.913 10.2732C150.303 9.83322 150.743 9.49322 151.233 9.25322C151.723 9.01322 152.253 8.88322 152.823 8.87322C153.393 8.86322 153.993 8.99322 154.603 9.27322C155.023 9.46322 155.393 9.69322 155.723 9.97322C156.053 10.2532 156.303 10.5632 156.503 10.9132C156.703 11.2632 156.823 11.6432 156.873 12.0532C156.923 12.4632 156.883 12.9032 156.753 13.3532L155.683 12.8832C155.823 12.2532 155.753 11.7132 155.473 11.2432Z" fill="black"/>
<path d="M160.733 12.4532L158.903 15.7632L162.953 18.0032L164.783 14.6932L165.803 15.2532L161.563 22.9432L160.543 22.3832L162.483 18.8632L158.433 16.6232L156.493 20.1432L155.473 19.5832L159.723 11.8932L160.733 12.4532Z" fill="black"/>
<path d="M174.553 22.6232C174.373 22.1132 174.033 21.6732 173.533 21.3132C173.103 21.0032 172.683 20.8232 172.263 20.7632C171.843 20.7032 171.443 20.7432 171.053 20.8732C170.663 21.0032 170.293 21.2032 169.953 21.4832C169.613 21.7632 169.303 22.0832 169.033 22.4632C168.743 22.8732 168.513 23.2832 168.343 23.7132C168.173 24.1432 168.093 24.5632 168.093 24.9732C168.093 25.3832 168.193 25.7832 168.383 26.1632C168.573 26.5432 168.883 26.8832 169.313 27.1932C169.623 27.4132 169.943 27.5632 170.263 27.6332C170.583 27.7032 170.893 27.7132 171.203 27.6532C171.513 27.5932 171.803 27.4732 172.083 27.2932C172.363 27.1132 172.623 26.8832 172.853 26.6032L173.803 27.2832C173.063 28.1132 172.253 28.5932 171.363 28.7132C170.473 28.8332 169.583 28.5632 168.663 27.9132C168.113 27.5132 167.693 27.0732 167.423 26.5832C167.143 26.0932 166.993 25.5932 166.963 25.0632C166.933 24.5332 167.003 23.9932 167.193 23.4432C167.383 22.8932 167.663 22.3532 168.033 21.8432C168.403 21.3232 168.833 20.8932 169.303 20.5332C169.773 20.1732 170.283 19.9432 170.803 19.8032C171.333 19.6632 171.873 19.6532 172.443 19.7632C173.003 19.8732 173.563 20.1232 174.113 20.5132C174.483 20.7832 174.803 21.0832 175.063 21.4232C175.323 21.7632 175.513 22.1232 175.633 22.5032C175.753 22.8832 175.793 23.2832 175.763 23.6932C175.723 24.1032 175.603 24.5232 175.383 24.9432L174.433 24.2632C174.703 23.6932 174.733 23.1432 174.553 22.6232Z" fill="black"/>
<path d="M176.693 26.0032C177.193 25.7032 177.703 25.5032 178.253 25.4032C178.793 25.3132 179.353 25.3432 179.913 25.4932C180.473 25.6432 181.023 25.9432 181.553 26.4032C182.083 26.8632 182.463 27.3532 182.693 27.8932C182.923 28.4332 183.033 28.9732 183.023 29.5232C183.013 30.0732 182.893 30.6232 182.663 31.1532C182.433 31.6832 182.123 32.1832 181.733 32.6332C181.343 33.0832 180.903 33.4632 180.403 33.7732C179.903 34.0832 179.393 34.2732 178.843 34.3732C178.293 34.4732 177.743 34.4332 177.183 34.2832C176.623 34.1332 176.073 33.8232 175.553 33.3732C175.023 32.9132 174.643 32.4232 174.413 31.8932C174.183 31.3632 174.063 30.8232 174.083 30.2632C174.093 29.7132 174.213 29.1632 174.443 28.6332C174.673 28.1032 174.983 27.6032 175.373 27.1532C175.753 26.6832 176.203 26.3032 176.693 26.0032ZM175.523 29.0032C175.333 29.4032 175.213 29.8132 175.173 30.2332C175.133 30.6532 175.193 31.0732 175.353 31.4832C175.513 31.8932 175.783 32.2732 176.193 32.6232C176.593 32.9732 177.013 33.1932 177.443 33.2832C177.873 33.3732 178.293 33.3732 178.703 33.2732C179.113 33.1732 179.503 32.9932 179.873 32.7432C180.243 32.4932 180.573 32.2032 180.863 31.8632C181.153 31.5232 181.393 31.1632 181.593 30.7632C181.783 30.3632 181.903 29.9532 181.943 29.5332C181.983 29.1132 181.923 28.6932 181.773 28.2832C181.613 27.8732 181.333 27.4932 180.933 27.1432C180.533 26.7932 180.113 26.5732 179.683 26.4832C179.253 26.3932 178.833 26.3932 178.423 26.4932C178.013 26.5932 177.623 26.7732 177.253 27.0232C176.883 27.2732 176.553 27.5632 176.263 27.9032C175.973 28.2432 175.723 28.6032 175.523 29.0032Z" fill="black"/>
<path d="M184.473 40.7532C183.653 40.7132 182.853 40.3032 182.083 39.5032C181.293 38.6932 180.873 37.8732 180.813 37.0432C180.753 36.2132 181.143 35.3932 181.983 34.5732L186.003 30.6632L186.813 31.5032L182.793 35.4132C182.233 35.9632 181.943 36.5232 181.953 37.1132C181.953 37.6932 182.233 38.2732 182.773 38.8332C183.293 39.3632 183.833 39.6332 184.393 39.6332C184.953 39.6332 185.523 39.3532 186.083 38.8032L190.103 34.8932L190.913 35.7332L186.893 39.6432C186.103 40.4232 185.293 40.7932 184.473 40.7532Z" fill="black"/>
<path d="M195.163 40.7332C195.693 41.3832 195.953 42.0132 195.933 42.6432C195.913 43.2632 195.633 43.8032 195.083 44.2632C194.673 44.6032 194.233 44.8032 193.773 44.8732C193.313 44.9432 192.853 44.8132 192.393 44.5032L192.373 44.5232C192.493 44.7532 192.563 44.9632 192.573 45.1632C192.583 45.3632 192.563 45.5432 192.493 45.7232C192.423 45.9032 192.333 46.0632 192.213 46.2232C192.093 46.3832 191.953 46.5432 191.803 46.6932C191.653 46.8432 191.493 46.9932 191.323 47.1332C191.153 47.2732 191.003 47.4332 190.863 47.5932C190.723 47.7532 190.593 47.9232 190.483 48.0932C190.373 48.2632 190.303 48.4432 190.263 48.6332L189.433 47.6232C189.453 47.5032 189.513 47.3832 189.613 47.2632C189.713 47.1432 189.833 47.0132 189.983 46.8832C190.123 46.7532 190.283 46.6132 190.443 46.4732C190.603 46.3332 190.763 46.1732 190.903 46.0032C191.043 45.8432 191.173 45.6832 191.293 45.5232C191.413 45.3632 191.493 45.1932 191.533 45.0232C191.573 44.8532 191.573 44.6732 191.533 44.4832C191.493 44.2932 191.373 44.0932 191.193 43.8732L189.383 41.6732L186.483 44.0532L185.743 43.1532L192.523 37.5732L195.163 40.7332ZM192.243 43.4532C192.433 43.6132 192.633 43.7332 192.843 43.8032C193.053 43.8732 193.273 43.8832 193.493 43.8432C193.713 43.8032 193.953 43.6832 194.203 43.4732C194.543 43.1932 194.743 42.8632 194.803 42.5032C194.863 42.1332 194.713 41.7432 194.373 41.3132L192.533 39.0732L190.163 41.0232L191.713 42.9032C191.873 43.1032 192.053 43.2832 192.243 43.4532Z" fill="black"/>
<path d="M199.673 48.8032C199.683 48.3232 199.513 47.8332 199.163 47.3332C199.023 47.1332 198.863 46.9432 198.683 46.7832C198.503 46.6132 198.323 46.4932 198.123 46.4032C197.923 46.3132 197.713 46.2832 197.493 46.3032C197.273 46.3232 197.043 46.4132 196.803 46.5832C196.583 46.7332 196.443 46.9332 196.403 47.1532C196.353 47.3832 196.363 47.6332 196.433 47.9132C196.493 48.1932 196.603 48.4932 196.733 48.8032C196.873 49.1232 197.003 49.4432 197.133 49.7732C197.263 50.1032 197.383 50.4432 197.483 50.7832C197.583 51.1232 197.633 51.4532 197.633 51.7832C197.633 52.1132 197.553 52.4232 197.413 52.7132C197.273 53.0132 197.023 53.2832 196.663 53.5332C196.283 53.8032 195.893 53.9432 195.503 53.9632C195.113 53.9832 194.733 53.9132 194.373 53.7632C194.013 53.6132 193.683 53.4032 193.373 53.1232C193.063 52.8432 192.793 52.5432 192.563 52.2132C192.283 51.8132 192.063 51.3932 191.913 50.9632C191.763 50.5332 191.693 50.1132 191.713 49.6932C191.723 49.2732 191.843 48.8832 192.053 48.5032C192.263 48.1232 192.583 47.7832 193.023 47.4732L193.653 48.3832C193.353 48.5932 193.133 48.8332 192.993 49.1032C192.853 49.3732 192.783 49.6532 192.773 49.9432C192.763 50.2332 192.813 50.5332 192.933 50.8332C193.043 51.1332 193.193 51.4232 193.383 51.6932C193.533 51.9032 193.703 52.1132 193.893 52.3032C194.083 52.4932 194.293 52.6432 194.513 52.7532C194.733 52.8632 194.963 52.9132 195.203 52.9032C195.443 52.8932 195.703 52.7932 195.963 52.6132C196.213 52.4432 196.373 52.2332 196.433 51.9932C196.493 51.7532 196.503 51.4932 196.443 51.2032C196.383 50.9132 196.293 50.6132 196.163 50.2932C196.033 49.9732 195.893 49.6532 195.763 49.3232C195.623 48.9932 195.503 48.6632 195.393 48.3232C195.283 47.9832 195.223 47.6632 195.213 47.3532C195.203 47.0432 195.253 46.7432 195.383 46.4532C195.513 46.1632 195.743 45.9132 196.063 45.6832C196.423 45.4332 196.793 45.2832 197.163 45.2432C197.533 45.2032 197.883 45.2532 198.233 45.3732C198.573 45.5032 198.903 45.6932 199.203 45.9432C199.503 46.1932 199.773 46.4932 200.003 46.8232C200.263 47.1932 200.453 47.5632 200.593 47.9432C200.723 48.3232 200.783 48.6932 200.763 49.0632C200.743 49.4332 200.633 49.7832 200.443 50.1232C200.253 50.4632 199.963 50.7732 199.573 51.0632L198.943 50.1532C199.413 49.7332 199.663 49.2832 199.673 48.8032Z" fill="black"/>
<path d="M205.983 56.7232L205.133 57.2232L202.643 53.0132L200.243 54.4332L202.563 58.3632L201.713 58.8632L199.393 54.9332L196.783 56.4832L199.293 60.7332L198.443 61.2332L195.333 55.9832L202.893 51.5132L205.983 56.7232Z" fill="black"/>
<path d="M207.253 61.2332L208.143 60.8232L211.073 67.2032L210.183 67.6132L208.963 64.9532L201.873 68.2032L201.383 67.1432L208.473 63.8932L207.253 61.2332Z" fill="black"/>
<path d="M213.063 72.4532C213.353 73.2332 213.393 73.9232 213.163 74.5032C212.933 75.0832 212.493 75.5032 211.833 75.7532C211.333 75.9432 210.853 75.9832 210.393 75.9032C209.933 75.8232 209.543 75.5432 209.213 75.1032L209.193 75.1132C209.233 75.3732 209.233 75.5932 209.173 75.7832C209.123 75.9732 209.033 76.1432 208.923 76.2832C208.803 76.4232 208.663 76.5532 208.493 76.6632C208.323 76.7732 208.143 76.8732 207.953 76.9732C207.763 77.0632 207.563 77.1532 207.353 77.2332C207.143 77.3132 206.953 77.4132 206.763 77.5132C206.573 77.6132 206.403 77.7332 206.243 77.8532C206.083 77.9732 205.953 78.1232 205.863 78.2932L205.413 77.0732C205.473 76.9632 205.563 76.8732 205.703 76.7932C205.843 76.7132 205.993 76.6332 206.173 76.5632C206.353 76.4932 206.543 76.4132 206.743 76.3232C206.943 76.2332 207.143 76.1432 207.333 76.0232C207.523 75.9232 207.693 75.8132 207.863 75.6932C208.023 75.5832 208.153 75.4532 208.253 75.3032C208.353 75.1532 208.413 74.9832 208.433 74.7932C208.453 74.6032 208.413 74.3732 208.313 74.1032L207.323 71.4232L203.803 72.7232L203.393 71.6232L211.633 68.5732L213.063 72.4532ZM209.413 74.0632C209.533 74.2832 209.683 74.4532 209.863 74.5832C210.033 74.7132 210.243 74.7932 210.463 74.8332C210.693 74.8632 210.953 74.8332 211.253 74.7132C211.673 74.5632 211.963 74.3232 212.143 73.9932C212.323 73.6632 212.313 73.2432 212.123 72.7332L211.113 70.0132L208.243 71.0732L209.093 73.3532C209.173 73.6132 209.283 73.8432 209.413 74.0632Z" fill="black"/>
<path d="M215.633 80.5332L208.113 86.2232L207.763 84.9832L210.053 83.3432L209.043 79.7632L206.233 79.5332L205.913 78.3832L215.293 79.2932L215.633 80.5332ZM210.883 82.7132L214.423 80.1932L214.413 80.1732L210.063 79.8532L210.883 82.7132Z" fill="black"/>
<path d="M217.033 86.2432L208.463 88.1632L208.213 87.0232L216.783 85.1032L217.033 86.2432Z" fill="black"/>
<path d="M217.733 89.6432L210.053 90.9732L210.843 95.5532L209.873 95.7232L208.883 89.9932L217.533 88.4932L217.733 89.6432Z" fill="black"/>
<path d="M219.313 101.693L218.333 101.793L217.833 96.9232L215.053 97.2032L215.513 101.743L214.533 101.843L214.073 97.3032L211.053 97.6132L211.553 102.523L210.573 102.623L209.953 96.5532L218.693 95.6632L219.313 101.693Z" fill="black"/>
<path d="M219.543 107.803C219.563 108.643 219.373 109.293 218.983 109.783C218.583 110.263 218.033 110.513 217.313 110.533C216.783 110.543 216.313 110.433 215.903 110.203C215.493 109.973 215.213 109.593 215.053 109.063H215.033C214.993 109.323 214.913 109.523 214.803 109.693C214.693 109.853 214.563 109.983 214.403 110.083C214.243 110.183 214.073 110.253 213.873 110.303C213.673 110.353 213.473 110.393 213.263 110.423C213.053 110.443 212.833 110.463 212.613 110.473C212.393 110.483 212.173 110.513 211.963 110.553C211.753 110.593 211.553 110.643 211.363 110.713C211.173 110.783 211.003 110.873 210.863 111.003L210.833 109.703C210.923 109.623 211.043 109.563 211.193 109.523C211.343 109.483 211.523 109.463 211.713 109.453C211.903 109.443 212.113 109.423 212.333 109.413C212.553 109.403 212.773 109.373 212.983 109.323C213.193 109.283 213.393 109.243 213.593 109.183C213.793 109.123 213.953 109.043 214.093 108.933C214.233 108.823 214.343 108.683 214.423 108.503C214.503 108.333 214.543 108.103 214.533 107.813L214.463 104.963L210.713 105.063L210.683 103.893L219.463 103.673L219.543 107.803ZM215.573 108.143C215.623 108.393 215.703 108.603 215.833 108.783C215.953 108.963 216.123 109.103 216.323 109.213C216.523 109.323 216.783 109.363 217.113 109.363C217.553 109.353 217.913 109.223 218.183 108.963C218.453 108.703 218.583 108.313 218.573 107.763L218.503 104.863L215.443 104.943L215.503 107.373C215.493 107.643 215.523 107.903 215.573 108.143Z" fill="black"/>
<path d="M214.303 119.013L213.323 118.943L213.573 115.393L214.553 115.463L214.303 119.013Z" fill="black"/>
<path d="M208.753 130.063L216.373 129.423V129.403L209.483 126.073L209.703 124.873L218.743 124.243L218.523 125.413L211.023 125.783V125.803L217.853 129.063L217.623 130.313L210.083 130.903V130.923L216.943 133.993L216.733 135.143L208.523 131.243L208.753 130.063Z" fill="black"/>
<path d="M215.323 140.063L205.943 140.993L206.293 139.753L209.103 139.543L210.103 135.963L207.823 134.303L208.143 133.153L215.673 138.813L215.323 140.063ZM210.143 139.453L214.483 139.153L214.493 139.133L210.953 136.593L210.143 139.453Z" fill="black"/>
<path d="M213.683 142.283L214.613 142.603L212.303 149.233L211.373 148.913L212.333 146.153L204.973 143.583L205.353 142.483L212.713 145.053L213.683 142.283Z" fill="black"/>
<path d="M208.493 154.973C208.953 154.693 209.313 154.263 209.563 153.703C209.773 153.223 209.863 152.773 209.833 152.353C209.803 151.933 209.683 151.543 209.473 151.193C209.263 150.843 208.993 150.523 208.643 150.243C208.293 149.963 207.913 149.733 207.493 149.553C207.033 149.353 206.573 149.213 206.123 149.143C205.663 149.073 205.243 149.073 204.833 149.163C204.433 149.253 204.063 149.423 203.733 149.693C203.403 149.963 203.133 150.333 202.923 150.813C202.773 151.163 202.693 151.503 202.683 151.833C202.683 152.163 202.733 152.463 202.853 152.753C202.973 153.043 203.153 153.303 203.383 153.543C203.623 153.783 203.893 153.983 204.213 154.153L203.743 155.223C202.773 154.673 202.143 153.973 201.833 153.143C201.533 152.303 201.603 151.373 202.053 150.343C202.323 149.723 202.673 149.223 203.093 148.853C203.513 148.483 203.973 148.223 204.483 148.083C204.993 147.943 205.533 147.903 206.113 147.973C206.693 148.043 207.273 148.203 207.863 148.463C208.443 148.723 208.963 149.043 209.403 149.433C209.843 149.823 210.193 150.263 210.433 150.753C210.673 151.243 210.803 151.773 210.813 152.343C210.823 152.913 210.693 153.513 210.423 154.133C210.243 154.553 210.003 154.923 209.733 155.253C209.463 155.583 209.143 155.843 208.793 156.043C208.443 156.243 208.063 156.363 207.653 156.413C207.243 156.463 206.803 156.423 206.353 156.303L206.823 155.233C207.483 155.333 208.033 155.253 208.493 154.973Z" fill="black"/>
<path d="M207.313 160.243L204.003 158.433L201.793 162.493L205.103 164.303L204.543 165.333L196.833 161.123L197.393 160.093L200.923 162.023L203.143 157.963L199.613 156.033L200.173 155.003L207.883 159.213L207.313 160.243Z" fill="black"/>
<path d="M197.193 174.133C197.703 173.953 198.143 173.603 198.493 173.103C198.793 172.673 198.973 172.253 199.033 171.833C199.093 171.413 199.053 171.013 198.923 170.623C198.793 170.233 198.583 169.873 198.303 169.523C198.023 169.183 197.693 168.883 197.323 168.613C196.913 168.323 196.493 168.093 196.063 167.933C195.633 167.773 195.213 167.683 194.803 167.693C194.393 167.693 193.993 167.793 193.623 167.993C193.253 168.193 192.903 168.493 192.593 168.923C192.373 169.233 192.223 169.553 192.153 169.873C192.083 170.193 192.073 170.503 192.133 170.813C192.193 171.123 192.313 171.413 192.493 171.693C192.673 171.973 192.903 172.233 193.183 172.463L192.503 173.413C191.673 172.673 191.183 171.873 191.063 170.983C190.933 170.103 191.203 169.203 191.853 168.283C192.243 167.733 192.683 167.313 193.173 167.033C193.663 166.753 194.163 166.593 194.693 166.563C195.223 166.523 195.763 166.603 196.313 166.793C196.863 166.983 197.403 167.253 197.923 167.633C198.443 168.003 198.883 168.423 199.233 168.903C199.583 169.373 199.833 169.873 199.973 170.403C200.113 170.933 200.133 171.473 200.023 172.043C199.923 172.603 199.673 173.163 199.283 173.713C199.013 174.083 198.713 174.403 198.373 174.673C198.033 174.943 197.673 175.133 197.293 175.253C196.913 175.373 196.513 175.423 196.103 175.383C195.693 175.353 195.273 175.223 194.853 175.003L195.533 174.053C196.133 174.283 196.673 174.313 197.193 174.133Z" fill="black"/>
<path d="M193.833 176.283C194.143 176.773 194.343 177.293 194.433 177.843C194.523 178.383 194.503 178.943 194.353 179.503C194.203 180.063 193.903 180.613 193.453 181.143C193.003 181.673 192.503 182.053 191.973 182.293C191.443 182.523 190.893 182.643 190.343 182.633C189.793 182.623 189.243 182.513 188.713 182.283C188.183 182.053 187.683 181.753 187.223 181.363C186.763 180.973 186.383 180.533 186.083 180.043C185.773 179.553 185.573 179.033 185.483 178.483C185.393 177.943 185.413 177.383 185.563 176.823C185.713 176.263 186.013 175.713 186.473 175.183C186.923 174.653 187.413 174.273 187.953 174.033C188.483 173.793 189.023 173.683 189.583 173.693C190.133 173.703 190.683 173.823 191.213 174.043C191.743 174.263 192.243 174.573 192.703 174.963C193.143 175.353 193.523 175.793 193.833 176.283ZM190.823 175.133C190.423 174.943 190.013 174.823 189.583 174.793C189.163 174.753 188.743 174.813 188.333 174.973C187.923 175.133 187.543 175.413 187.203 175.813C186.853 176.223 186.643 176.633 186.543 177.063C186.453 177.493 186.453 177.913 186.563 178.323C186.663 178.733 186.843 179.123 187.093 179.493C187.343 179.863 187.643 180.183 187.973 180.473C188.313 180.763 188.683 181.003 189.083 181.193C189.483 181.383 189.893 181.503 190.323 181.533C190.743 181.573 191.163 181.513 191.573 181.353C191.983 181.193 192.363 180.913 192.703 180.513C193.053 180.103 193.263 179.693 193.363 179.263C193.453 178.833 193.453 178.413 193.343 178.003C193.243 177.593 193.063 177.203 192.813 176.833C192.563 176.463 192.263 176.143 191.933 175.853C191.593 175.563 191.223 175.323 190.823 175.133Z" fill="black"/>
<path d="M179.123 184.123C179.153 183.303 179.563 182.503 180.353 181.733C181.163 180.943 181.983 180.513 182.813 180.453C183.643 180.393 184.473 180.783 185.293 181.613L189.223 185.613L188.393 186.433L184.463 182.433C183.913 181.873 183.343 181.593 182.763 181.593C182.183 181.593 181.613 181.873 181.043 182.423C180.513 182.943 180.253 183.493 180.253 184.053C180.253 184.613 180.543 185.173 181.093 185.743L185.023 189.743L184.193 190.563L180.263 186.563C179.463 185.753 179.093 184.943 179.123 184.123Z" fill="black"/>
<path d="M179.183 194.823C178.543 195.353 177.903 195.613 177.283 195.603C176.663 195.593 176.113 195.303 175.663 194.763C175.323 194.353 175.113 193.913 175.043 193.453C174.973 192.993 175.093 192.533 175.413 192.073L175.393 192.053C175.163 192.173 174.953 192.243 174.763 192.263C174.563 192.273 174.383 192.253 174.203 192.193C174.033 192.133 173.863 192.033 173.703 191.913C173.543 191.793 173.383 191.653 173.233 191.503C173.083 191.353 172.933 191.193 172.793 191.023C172.643 190.853 172.493 190.703 172.333 190.563C172.173 190.423 172.003 190.293 171.833 190.183C171.663 190.073 171.483 190.003 171.293 189.963L172.293 189.133C172.413 189.153 172.533 189.213 172.653 189.313C172.773 189.413 172.903 189.533 173.033 189.683C173.163 189.823 173.303 189.983 173.453 190.143C173.603 190.313 173.763 190.463 173.923 190.603C174.083 190.743 174.243 190.873 174.403 190.993C174.563 191.113 174.733 191.193 174.903 191.233C175.073 191.273 175.253 191.273 175.443 191.233C175.633 191.193 175.833 191.073 176.053 190.893L178.253 189.073L175.853 186.183L176.753 185.433L182.363 192.193L179.183 194.823ZM176.453 191.913C176.293 192.103 176.173 192.303 176.113 192.513C176.043 192.723 176.033 192.943 176.083 193.163C176.123 193.393 176.253 193.623 176.453 193.873C176.733 194.213 177.063 194.413 177.433 194.473C177.803 194.533 178.193 194.383 178.623 194.033L180.853 192.183L178.893 189.823L177.023 191.383C176.803 191.543 176.613 191.723 176.453 191.913Z" fill="black"/>
<path d="M171.143 199.353C171.623 199.363 172.113 199.183 172.613 198.843C172.813 198.703 172.993 198.543 173.163 198.363C173.333 198.183 173.453 197.993 173.543 197.793C173.623 197.593 173.663 197.383 173.643 197.163C173.623 196.943 173.533 196.713 173.363 196.483C173.203 196.263 173.013 196.133 172.783 196.083C172.553 196.033 172.303 196.043 172.023 196.113C171.743 196.183 171.443 196.283 171.133 196.413C170.813 196.553 170.493 196.683 170.163 196.823C169.833 196.963 169.493 197.073 169.153 197.183C168.813 197.283 168.483 197.333 168.153 197.333C167.823 197.333 167.513 197.263 167.223 197.123C166.933 196.983 166.653 196.733 166.403 196.373C166.133 195.993 165.983 195.603 165.963 195.213C165.943 194.823 166.003 194.443 166.153 194.083C166.303 193.723 166.513 193.383 166.793 193.073C167.073 192.763 167.373 192.493 167.703 192.263C168.103 191.983 168.523 191.763 168.953 191.613C169.383 191.463 169.803 191.393 170.223 191.403C170.643 191.413 171.033 191.523 171.423 191.733C171.803 191.943 172.153 192.263 172.453 192.693L171.543 193.333C171.333 193.033 171.093 192.813 170.813 192.673C170.543 192.533 170.263 192.463 169.973 192.463C169.683 192.453 169.383 192.513 169.083 192.623C168.783 192.733 168.493 192.883 168.233 193.073C168.023 193.223 167.813 193.393 167.623 193.593C167.433 193.783 167.283 193.993 167.183 194.213C167.073 194.433 167.033 194.663 167.043 194.903C167.053 195.143 167.153 195.403 167.333 195.663C167.503 195.913 167.713 196.063 167.953 196.123C168.193 196.183 168.453 196.193 168.743 196.133C169.033 196.073 169.333 195.983 169.653 195.853C169.973 195.723 170.293 195.583 170.623 195.443C170.953 195.303 171.283 195.183 171.623 195.073C171.953 194.963 172.283 194.903 172.593 194.883C172.903 194.863 173.203 194.923 173.493 195.043C173.783 195.163 174.033 195.393 174.263 195.723C174.513 196.083 174.663 196.453 174.703 196.823C174.743 197.193 174.703 197.543 174.573 197.893C174.453 198.233 174.263 198.563 174.013 198.863C173.763 199.163 173.473 199.433 173.143 199.663C172.773 199.923 172.403 200.123 172.023 200.253C171.643 200.383 171.273 200.443 170.903 200.423C170.533 200.403 170.183 200.303 169.843 200.113C169.503 199.923 169.193 199.643 168.893 199.253L169.793 198.613C170.213 199.103 170.663 199.353 171.143 199.353Z" fill="black"/>
<path d="M163.223 205.723L162.723 204.883L166.923 202.373L165.493 199.973L161.573 202.313L161.063 201.473L164.983 199.133L163.423 196.523L159.193 199.053L158.693 198.213L163.933 195.083L168.443 202.623L163.223 205.723Z" fill="black"/>
<path d="M158.743 207.003L159.153 207.893L152.783 210.853L152.363 209.963L155.023 208.733L151.733 201.663L152.793 201.173L156.083 208.243L158.743 207.003Z" fill="black"/>
<path d="M147.553 212.873C146.773 213.163 146.083 213.203 145.503 212.983C144.923 212.763 144.503 212.323 144.253 211.653C144.063 211.153 144.013 210.673 144.103 210.213C144.183 209.753 144.453 209.353 144.903 209.033L144.893 209.013C144.643 209.053 144.413 209.053 144.223 209.003C144.033 208.953 143.863 208.873 143.723 208.753C143.583 208.633 143.453 208.493 143.343 208.323C143.233 208.153 143.123 207.973 143.033 207.783C142.943 207.593 142.853 207.393 142.773 207.183C142.693 206.973 142.593 206.783 142.483 206.593C142.373 206.403 142.263 206.233 142.133 206.073C142.003 205.913 141.863 205.783 141.693 205.693L142.913 205.233C143.023 205.293 143.113 205.383 143.203 205.523C143.283 205.663 143.363 205.813 143.443 205.993C143.523 206.173 143.603 206.363 143.683 206.563C143.773 206.763 143.873 206.963 143.983 207.143C144.093 207.333 144.193 207.503 144.313 207.673C144.423 207.833 144.563 207.963 144.713 208.063C144.863 208.163 145.033 208.223 145.223 208.243C145.413 208.263 145.643 208.223 145.913 208.123L148.583 207.123L147.263 203.613L148.353 203.203L151.443 211.423L147.553 212.873ZM145.923 209.223C145.703 209.343 145.533 209.503 145.403 209.673C145.273 209.853 145.193 210.053 145.153 210.273C145.123 210.503 145.163 210.763 145.273 211.063C145.433 211.473 145.673 211.773 146.003 211.943C146.333 212.113 146.753 212.113 147.263 211.913L149.983 210.893L148.903 208.023L146.623 208.883C146.373 208.993 146.143 209.103 145.923 209.223Z" fill="black"/>
<path d="M139.473 215.483L133.753 207.983L134.993 207.623L136.643 209.903L140.213 208.883L140.433 206.073L141.583 205.743L140.713 215.123L139.473 215.483ZM137.273 210.753L139.813 214.283L139.833 214.273L140.133 209.923L137.273 210.753Z" fill="black"/>
<path d="M133.773 216.913L131.813 208.353L132.953 208.093L134.913 216.653L133.773 216.913Z" fill="black"/>
<path d="M130.423 217.613L129.053 209.933L124.473 210.753L124.303 209.783L130.033 208.763L131.573 217.413L130.423 217.613Z" fill="black"/>
<path d="M118.333 219.263L118.233 218.283L123.103 217.763L122.803 214.983L118.263 215.473L118.163 214.493L122.703 214.003L122.383 210.983L117.483 211.513L117.373 210.533L123.443 209.883L124.383 218.613L118.333 219.263Z" fill="black"/>
<path d="M112.243 219.523C111.403 219.543 110.743 219.363 110.263 218.963C109.783 218.563 109.523 218.013 109.503 217.303C109.483 216.773 109.593 216.303 109.823 215.893C110.053 215.483 110.433 215.203 110.963 215.033V215.013C110.713 214.973 110.503 214.893 110.333 214.783C110.163 214.673 110.043 214.543 109.943 214.383C109.843 214.223 109.773 214.053 109.723 213.853C109.673 213.653 109.633 213.453 109.603 213.243C109.583 213.033 109.563 212.813 109.543 212.593C109.523 212.373 109.503 212.153 109.463 211.943C109.423 211.733 109.373 211.533 109.303 211.343C109.233 211.153 109.143 210.983 109.013 210.843L110.313 210.803C110.393 210.893 110.453 211.013 110.493 211.163C110.523 211.323 110.553 211.493 110.563 211.683C110.573 211.873 110.593 212.083 110.603 212.303C110.613 212.523 110.653 212.743 110.693 212.953C110.733 213.163 110.783 213.363 110.833 213.553C110.893 213.743 110.973 213.913 111.083 214.053C111.193 214.193 111.333 214.303 111.513 214.383C111.683 214.463 111.923 214.503 112.203 214.493L115.053 214.413L114.943 210.663L116.113 210.623L116.373 219.403L112.243 219.523ZM111.873 215.543C111.623 215.593 111.413 215.673 111.233 215.803C111.053 215.923 110.913 216.093 110.803 216.293C110.693 216.493 110.653 216.763 110.663 217.083C110.673 217.523 110.813 217.883 111.063 218.153C111.313 218.423 111.723 218.553 112.273 218.533L115.173 218.443L115.083 215.383L112.653 215.453C112.383 215.473 112.123 215.503 111.873 215.543Z" fill="black"/>
<path d="M101.003 214.333L101.063 213.353L104.613 213.583L104.553 214.563L101.003 214.333Z" fill="black"/>
<path d="M89.9331 208.843L90.6131 216.463H90.6331L93.9331 209.553L95.1331 209.763L95.8031 218.803L94.6331 218.593L94.2231 211.103H94.2031L90.9831 217.953L89.7331 217.733L89.1031 210.203H89.0831L86.0431 217.083L84.8931 216.873L88.7531 208.643L89.9331 208.843Z" fill="black"/>
<path d="M79.9834 215.463L79.0034 206.083L80.2534 206.423L80.4734 209.223L84.0534 210.203L85.7034 207.913L86.8534 208.233L81.2334 215.793L79.9834 215.463ZM80.5634 210.273L80.8934 214.613L80.9134 214.623L83.4334 211.073L80.5634 210.273Z" fill="black"/>
<path d="M77.753 213.833L77.433 214.763L70.793 212.483L71.113 211.553L73.883 212.503L76.413 205.123L77.523 205.503L74.993 212.883L77.753 213.833Z" fill="black"/>
<path d="M65.0132 208.693C65.3032 209.153 65.7232 209.513 66.2932 209.753C66.7732 209.963 67.2232 210.053 67.6432 210.013C68.0632 209.983 68.4532 209.863 68.8032 209.653C69.1532 209.443 69.4732 209.163 69.7432 208.823C70.0132 208.473 70.2432 208.093 70.4332 207.673C70.6332 207.213 70.7632 206.753 70.8432 206.303C70.9132 205.843 70.9032 205.423 70.8132 205.023C70.7232 204.623 70.5432 204.253 70.2732 203.923C70.0032 203.593 69.6332 203.323 69.1532 203.113C68.8032 202.963 68.4632 202.883 68.1332 202.883C67.8032 202.883 67.5032 202.943 67.2132 203.063C66.9232 203.183 66.6632 203.363 66.4232 203.603C66.1832 203.843 65.9832 204.123 65.8232 204.443L64.7532 203.983C65.2932 203.013 65.9932 202.373 66.8332 202.063C67.6732 201.753 68.6032 201.823 69.6332 202.273C70.2532 202.543 70.7532 202.883 71.1332 203.303C71.5032 203.723 71.7632 204.183 71.9132 204.693C72.0632 205.203 72.1032 205.743 72.0332 206.323C71.9632 206.903 71.8032 207.483 71.5532 208.073C71.3032 208.663 70.9732 209.173 70.5932 209.623C70.2032 210.063 69.7632 210.413 69.2832 210.653C68.8032 210.893 68.2632 211.033 67.6932 211.043C67.1232 211.063 66.5232 210.933 65.9032 210.663C65.4832 210.483 65.1032 210.253 64.7832 209.973C64.4532 209.693 64.1932 209.383 63.9932 209.043C63.7932 208.703 63.6632 208.323 63.6132 207.903C63.5632 207.493 63.5932 207.053 63.7232 206.603L64.7932 207.063C64.6532 207.693 64.7332 208.233 65.0132 208.693Z" fill="black"/>
<path d="M59.7333 207.533L61.5233 204.213L57.4533 202.013L55.6633 205.333L54.6333 204.783L58.8033 197.053L59.8333 197.603L57.9233 201.143L61.9933 203.343L63.9033 199.803L64.9333 200.353L60.7633 208.083L59.7333 207.533Z" fill="black"/>
<path d="M45.7934 197.483C45.9834 197.993 46.3234 198.433 46.8234 198.783C47.2534 199.083 47.6734 199.263 48.0934 199.323C48.5134 199.373 48.9134 199.333 49.3034 199.203C49.6934 199.073 50.0534 198.863 50.3934 198.583C50.7334 198.303 51.0334 197.973 51.3034 197.593C51.5934 197.183 51.8134 196.763 51.9834 196.333C52.1534 195.903 52.2234 195.483 52.2234 195.073C52.2234 194.663 52.1134 194.263 51.9234 193.893C51.7334 193.523 51.4134 193.173 50.9834 192.873C50.6734 192.653 50.3534 192.503 50.0334 192.433C49.7134 192.363 49.4034 192.363 49.0934 192.423C48.7834 192.483 48.4934 192.603 48.2134 192.783C47.9334 192.963 47.6834 193.203 47.4534 193.483L46.4934 192.813C47.2234 191.973 48.0334 191.493 48.9134 191.363C49.7934 191.233 50.6934 191.493 51.6134 192.143C52.1734 192.533 52.5834 192.973 52.8734 193.453C53.1534 193.933 53.3134 194.443 53.3534 194.973C53.3934 195.503 53.3234 196.043 53.1334 196.593C52.9534 197.143 52.6734 197.683 52.3034 198.203C51.9334 198.723 51.5134 199.163 51.0434 199.523C50.5734 199.883 50.0734 200.123 49.5434 200.263C49.0134 200.403 48.4734 200.423 47.9034 200.323C47.3434 200.223 46.7834 199.973 46.2334 199.583C45.8534 199.323 45.5334 199.023 45.2734 198.683C45.0134 198.343 44.8134 197.993 44.6934 197.613C44.5734 197.233 44.5234 196.833 44.5534 196.423C44.5834 196.013 44.7134 195.593 44.9234 195.173L45.8834 195.843C45.6434 196.423 45.6034 196.963 45.7934 197.483Z" fill="black"/>
<path d="M43.6434 194.143C43.1534 194.453 42.6334 194.653 42.0834 194.753C41.5434 194.853 40.9834 194.833 40.4234 194.683C39.8634 194.533 39.3134 194.243 38.7734 193.793C38.2334 193.343 37.8534 192.853 37.6234 192.323C37.3834 191.793 37.2734 191.243 37.2734 190.693C37.2834 190.143 37.3934 189.593 37.6134 189.063C37.8334 188.523 38.1434 188.033 38.5234 187.573C38.9134 187.113 39.3534 186.733 39.8434 186.423C40.3334 186.113 40.8534 185.913 41.3934 185.813C41.9334 185.713 42.4934 185.743 43.0534 185.893C43.6134 186.043 44.1634 186.343 44.6934 186.793C45.2234 187.243 45.6134 187.733 45.8534 188.263C46.0934 188.793 46.2134 189.333 46.2034 189.883C46.1934 190.433 46.0834 190.983 45.8634 191.513C45.6434 192.053 45.3334 192.543 44.9534 193.003C44.5734 193.443 44.1334 193.833 43.6434 194.143ZM44.7834 191.123C44.9734 190.723 45.0834 190.303 45.1234 189.883C45.1534 189.463 45.0934 189.043 44.9334 188.633C44.7734 188.223 44.4934 187.853 44.0834 187.503C43.6734 187.163 43.2534 186.943 42.8334 186.853C42.4034 186.763 41.9834 186.773 41.5734 186.873C41.1634 186.973 40.7734 187.153 40.4134 187.413C40.0434 187.663 39.7234 187.963 39.4334 188.303C39.1434 188.643 38.9134 189.013 38.7234 189.413C38.5334 189.813 38.4234 190.233 38.3834 190.653C38.3434 191.073 38.4134 191.493 38.5734 191.903C38.7334 192.313 39.0134 192.693 39.4234 193.033C39.8334 193.373 40.2534 193.593 40.6734 193.683C41.1034 193.773 41.5234 193.763 41.9334 193.663C42.3434 193.563 42.7334 193.383 43.0934 193.123C43.4534 192.863 43.7834 192.573 44.0734 192.233C44.3534 191.893 44.5834 191.523 44.7834 191.123Z" fill="black"/>
<path d="M35.713 179.453C36.533 179.483 37.333 179.893 38.113 180.673C38.913 181.473 39.343 182.293 39.403 183.123C39.463 183.953 39.083 184.783 38.253 185.603L34.273 189.553L33.453 188.723L37.433 184.773C37.993 184.223 38.273 183.653 38.263 183.063C38.253 182.483 37.973 181.913 37.423 181.353C36.893 180.823 36.353 180.563 35.793 180.573C35.233 180.583 34.673 180.863 34.113 181.413L30.133 185.363L29.313 184.533L33.293 180.583C34.093 179.803 34.893 179.423 35.713 179.453Z" fill="black"/>
<path d="M25.0334 179.583C24.4934 178.943 24.2334 178.313 24.2434 177.683C24.2534 177.053 24.5334 176.513 25.0834 176.063C25.4934 175.723 25.9234 175.513 26.3934 175.443C26.8534 175.373 27.3134 175.493 27.7734 175.803L27.7934 175.783C27.6634 175.553 27.5934 175.343 27.5834 175.153C27.5634 174.953 27.5934 174.773 27.6534 174.593C27.7134 174.413 27.8034 174.253 27.9334 174.093C28.0534 173.933 28.1934 173.773 28.3334 173.623C28.4834 173.473 28.6434 173.323 28.8134 173.173C28.9834 173.023 29.1334 172.873 29.2734 172.703C29.4134 172.543 29.5434 172.373 29.6534 172.203C29.7634 172.033 29.8334 171.853 29.8634 171.663L30.7034 172.663C30.6834 172.783 30.6234 172.903 30.5234 173.023C30.4234 173.143 30.3034 173.273 30.1634 173.403C30.0234 173.533 29.8634 173.673 29.7034 173.823C29.5434 173.973 29.3934 174.133 29.2534 174.293C29.1134 174.453 28.9834 174.613 28.8634 174.783C28.7434 174.943 28.6734 175.113 28.6234 175.283C28.5734 175.453 28.5834 175.633 28.6234 175.823C28.6634 176.013 28.7834 176.213 28.9634 176.433L30.7934 178.623L33.6634 176.213L34.4134 177.103L27.6834 182.743L25.0334 179.583ZM27.9234 176.833C27.7334 176.673 27.5334 176.553 27.3234 176.493C27.1134 176.423 26.8934 176.413 26.6734 176.463C26.4534 176.513 26.2134 176.633 25.9634 176.843C25.6234 177.123 25.4234 177.453 25.3734 177.823C25.3134 178.193 25.4634 178.583 25.8234 179.003L27.6934 181.223L30.0434 179.253L28.4834 177.383C28.3034 177.183 28.1134 177.003 27.9234 176.833Z" fill="black"/>
<path d="M20.4331 171.533C20.4331 172.013 20.6031 172.503 20.9531 172.993C21.0931 173.193 21.2531 173.373 21.4331 173.543C21.6131 173.713 21.8031 173.833 22.0031 173.913C22.2031 173.993 22.4131 174.033 22.6331 174.003C22.8531 173.983 23.0831 173.883 23.3131 173.723C23.5331 173.563 23.6631 173.373 23.7131 173.143C23.7531 172.913 23.7431 172.663 23.6731 172.383C23.6031 172.103 23.5031 171.803 23.3631 171.493C23.2231 171.183 23.0931 170.853 22.9531 170.523C22.8131 170.193 22.6931 169.853 22.5931 169.523C22.4931 169.183 22.4331 168.853 22.4331 168.523C22.4331 168.193 22.5031 167.883 22.6431 167.593C22.7831 167.303 23.0331 167.023 23.3831 166.773C23.7631 166.503 24.1531 166.353 24.5431 166.333C24.9331 166.313 25.3131 166.373 25.6731 166.523C26.0331 166.673 26.3731 166.883 26.6831 167.153C26.9931 167.423 27.2631 167.733 27.5031 168.063C27.7931 168.463 28.0031 168.883 28.1631 169.303C28.3231 169.723 28.3931 170.153 28.3731 170.573C28.3631 170.993 28.2531 171.393 28.0431 171.773C27.8331 172.153 27.5131 172.503 27.0831 172.813L26.4431 171.913C26.7431 171.703 26.9631 171.453 27.0931 171.183C27.2231 170.913 27.2931 170.633 27.3031 170.343C27.3031 170.053 27.2531 169.753 27.1431 169.453C27.0331 169.153 26.8731 168.863 26.6831 168.603C26.5331 168.393 26.3531 168.183 26.1631 168.003C25.9731 167.813 25.7631 167.673 25.5431 167.563C25.3231 167.453 25.0931 167.413 24.8431 167.423C24.6031 167.433 24.3531 167.533 24.0831 167.723C23.8331 167.903 23.6831 168.103 23.6231 168.343C23.5631 168.583 23.5631 168.843 23.6131 169.133C23.6731 169.423 23.7631 169.723 23.9031 170.033C24.0431 170.343 24.1731 170.673 24.3131 171.003C24.4531 171.333 24.5731 171.663 24.6931 171.993C24.8031 172.323 24.8731 172.653 24.8831 172.963C24.9031 173.273 24.8431 173.573 24.7231 173.863C24.6031 174.153 24.3731 174.403 24.0431 174.643C23.6831 174.903 23.3131 175.053 22.9531 175.093C22.5931 175.133 22.2331 175.093 21.8831 174.973C21.5431 174.853 21.2131 174.663 20.9131 174.413C20.6131 174.163 20.3431 173.873 20.1031 173.543C19.8431 173.173 19.6431 172.803 19.5031 172.423C19.3631 172.043 19.3031 171.673 19.3231 171.303C19.3431 170.933 19.4431 170.583 19.6331 170.243C19.8231 169.903 20.1031 169.583 20.4931 169.293L21.1331 170.193C20.6831 170.603 20.4431 171.053 20.4331 171.533Z" fill="black"/>
<path d="M14.0532 163.683L14.8932 163.173L17.4232 167.363L19.8132 165.923L17.4532 162.013L18.2932 161.503L20.6532 165.413L23.2532 163.843L20.7032 159.623L21.5432 159.113L24.7032 164.333L17.1832 168.873L14.0532 163.683Z" fill="black"/>
<path d="M12.753 159.203L11.863 159.623L8.87305 153.273L9.76305 152.853L11.013 155.503L18.073 152.183L18.573 153.243L11.513 156.563L12.753 159.203Z" fill="black"/>
<path d="M6.82309 148.033C6.52309 147.253 6.48309 146.563 6.70309 145.983C6.92309 145.393 7.36309 144.973 8.02309 144.723C8.52309 144.533 9.00309 144.483 9.46309 144.563C9.92309 144.643 10.3231 144.913 10.6431 145.353L10.6631 145.343C10.6231 145.093 10.6231 144.863 10.6731 144.673C10.7231 144.483 10.8031 144.313 10.9231 144.173C11.0431 144.023 11.1831 143.903 11.3531 143.783C11.5231 143.673 11.7031 143.563 11.8931 143.463C12.0831 143.373 12.2831 143.283 12.4931 143.193C12.6931 143.103 12.8931 143.013 13.0831 142.903C13.2731 142.793 13.4431 142.683 13.6031 142.553C13.7631 142.423 13.8831 142.283 13.9831 142.113L14.4431 143.333C14.3931 143.443 14.2931 143.543 14.1531 143.623C14.0131 143.703 13.8631 143.783 13.6831 143.863C13.5031 143.943 13.3131 144.023 13.1131 144.103C12.9131 144.193 12.7131 144.293 12.5331 144.403C12.3431 144.513 12.1731 144.623 12.0031 144.733C11.8431 144.843 11.7131 144.983 11.6131 145.133C11.5131 145.283 11.4631 145.453 11.4431 145.643C11.4231 145.833 11.4631 146.063 11.5631 146.333L12.5831 149.003L16.0931 147.663L16.5131 148.753L8.30309 151.883L6.82309 148.033ZM10.4631 146.383C10.3331 146.163 10.1831 145.993 10.0131 145.863C9.83309 145.733 9.63309 145.653 9.40309 145.623C9.17309 145.593 8.91309 145.633 8.61309 145.743C8.20309 145.903 7.90309 146.143 7.73309 146.473C7.56309 146.803 7.57309 147.223 7.76309 147.733L8.79309 150.443L11.6531 149.353L10.7831 147.073C10.7031 146.833 10.5931 146.603 10.4631 146.383Z" fill="black"/>
<path d="M4.18311 139.973L11.6531 134.213L12.0131 135.453L9.74311 137.113L10.7831 140.683L13.5931 140.883L13.9231 142.033L4.53311 141.213L4.18311 139.973ZM8.90311 137.743L5.38311 140.293L5.39311 140.313L9.74311 140.593L8.90311 137.743Z" fill="black"/>
<path d="M2.72314 134.283L11.2731 132.283L11.5431 133.423L2.99314 135.423L2.72314 134.283Z" fill="black"/>
<path d="M2.00342 130.913L9.67342 129.513L8.83342 124.943L9.80342 124.763L10.8534 130.483L2.21342 132.063L2.00342 130.913Z" fill="black"/>
<path d="M0.292969 118.843L1.27297 118.733L1.81297 123.603L4.58297 123.293L4.07297 118.753L5.05297 118.643L5.56297 123.173L8.58297 122.833L8.03297 117.933L9.01297 117.823L9.69297 123.883L0.962969 124.863L0.292969 118.843Z" fill="black"/>
<path d="M0.00321065 112.763C-0.0267893 111.923 0.153211 111.263 0.553211 110.783C0.943211 110.293 1.50321 110.043 2.21321 110.013C2.74321 109.993 3.21321 110.103 3.62321 110.323C4.03321 110.553 4.32321 110.933 4.48321 111.453H4.50321C4.54321 111.193 4.62321 110.983 4.72321 110.823C4.83321 110.663 4.96321 110.523 5.12321 110.423C5.28321 110.323 5.45321 110.243 5.65321 110.193C5.84321 110.143 6.05321 110.103 6.26321 110.063C6.47321 110.043 6.69321 110.023 6.91321 110.003C7.13321 109.983 7.35321 109.963 7.56321 109.923C7.77321 109.883 7.97321 109.833 8.16321 109.763C8.35321 109.693 8.52321 109.593 8.66321 109.473L8.71321 110.773C8.62321 110.853 8.50321 110.913 8.35321 110.953C8.20321 110.983 8.02321 111.013 7.83321 111.023C7.64321 111.043 7.43321 111.053 7.21321 111.073C6.99321 111.093 6.77321 111.123 6.56321 111.173C6.35321 111.213 6.15321 111.263 5.96321 111.313C5.77321 111.373 5.60321 111.453 5.46321 111.563C5.32321 111.673 5.21321 111.813 5.13321 111.993C5.05321 112.163 5.01321 112.403 5.02321 112.683L5.12321 115.533L8.87321 115.403L8.91321 116.573L0.133211 116.883L0.00321065 112.763ZM3.98321 112.373C3.93321 112.133 3.84321 111.913 3.72321 111.733C3.60321 111.553 3.43321 111.413 3.23321 111.303C3.03321 111.203 2.76321 111.153 2.44321 111.163C2.00321 111.183 1.64321 111.313 1.37321 111.573C1.10321 111.833 0.973211 112.233 0.993211 112.783L1.09321 115.683L4.15321 115.573L4.07321 113.143C4.06321 112.873 4.03321 112.623 3.98321 112.373Z" fill="black"/>
<path d="M5.14334 101.493L6.12334 101.553L5.90334 105.103L4.92334 105.043L5.14334 101.493Z" fill="black"/>
<path d="M10.5831 90.3832L2.97307 91.0932V91.1132L9.89307 94.3732L9.68307 95.5732L0.643066 96.2832L0.843066 95.1032L8.33307 94.6532V94.6332L1.47307 91.4432L1.69307 90.1932L9.22307 89.5332V89.5132L2.33307 86.5032L2.53307 85.3532L10.7831 89.1732L10.5831 90.3832Z" fill="black"/>
<path d="M3.92301 80.4532L13.293 79.4232L12.953 80.6732L10.153 80.9132L9.18301 84.5032L11.483 86.1432L11.173 87.2932L3.58301 81.7032L3.92301 80.4532ZM9.10301 81.0132L4.76301 81.3632L4.75301 81.3832L8.32301 83.8832L9.10301 81.0132Z" fill="black"/>
<path d="M5.53303 78.2132L4.60303 77.9032L6.85303 71.2532L7.78303 71.5632L6.84303 74.3332L14.233 76.8332L13.863 77.9432L6.47303 75.4432L5.53303 78.2132Z" fill="black"/>
<path d="M10.6031 65.4732C10.1431 65.7632 9.79313 66.1932 9.54313 66.7532C9.33313 67.2332 9.25313 67.6832 9.28313 68.1032C9.31313 68.5232 9.44313 68.9132 9.65313 69.2632C9.86313 69.6132 10.1431 69.9332 10.4931 70.2032C10.8431 70.4732 11.2231 70.7032 11.6431 70.8832C12.1031 71.0832 12.5631 71.2132 13.0131 71.2832C13.4731 71.3532 13.8931 71.3432 14.2931 71.2532C14.6931 71.1632 15.0631 70.9832 15.3831 70.7132C15.7131 70.4432 15.9831 70.0632 16.1831 69.5832C16.3331 69.2332 16.4131 68.8932 16.4131 68.5632C16.4131 68.2332 16.3531 67.9332 16.2331 67.6432C16.1131 67.3532 15.9331 67.0932 15.6931 66.8532C15.4531 66.6132 15.1731 66.4132 14.8531 66.2532L15.3131 65.1832C16.2831 65.7232 16.9331 66.4132 17.2431 67.2532C17.5531 68.0932 17.4931 69.0232 17.0531 70.0632C16.7831 70.6932 16.4431 71.1932 16.0331 71.5632C15.6231 71.9432 15.1531 72.2032 14.6431 72.3532C14.1331 72.5032 13.5931 72.5432 13.0131 72.4832C12.4331 72.4232 11.8531 72.2632 11.2631 72.0132C10.6731 71.7632 10.1631 71.4432 9.71313 71.0532C9.26313 70.6632 8.92313 70.2332 8.67313 69.7432C8.42313 69.2632 8.29314 68.7332 8.27314 68.1532C8.25314 67.5832 8.37314 66.9832 8.64314 66.3632C8.82314 65.9432 9.05313 65.5632 9.32313 65.2332C9.59313 64.9032 9.90313 64.6432 10.2531 64.4432C10.5931 64.2432 10.9731 64.1132 11.3831 64.0532C11.7931 63.9932 12.2331 64.0332 12.6831 64.1532L12.2231 65.2232C11.6131 65.1032 11.0731 65.1832 10.6031 65.4732Z" fill="black"/>
<path d="M11.7434 60.1832L15.0734 61.9632L17.2534 57.8832L13.9234 56.1032L14.4734 55.0732L22.2234 59.2032L21.6734 60.2332L18.1234 58.3432L15.9434 62.4232L19.4934 64.3132L18.9434 65.3432L11.1934 61.2132L11.7434 60.1832Z" fill="black"/>
<path d="M21.7234 46.2132C21.2134 46.4032 20.7834 46.7432 20.4334 47.2532C20.1334 47.6832 19.9534 48.1032 19.9034 48.5232C19.8534 48.9432 19.8934 49.3432 20.0234 49.7332C20.1534 50.1232 20.3634 50.4832 20.6534 50.8232C20.9334 51.1632 21.2634 51.4632 21.6434 51.7232C22.0534 52.0132 22.4734 52.2332 22.9034 52.3932C23.3334 52.5532 23.7534 52.6332 24.1634 52.6232C24.5734 52.6132 24.9634 52.5132 25.3434 52.3132C25.7234 52.1132 26.0634 51.8032 26.3634 51.3732C26.5834 51.0532 26.7234 50.7432 26.7934 50.4232C26.8634 50.1032 26.8634 49.7932 26.8034 49.4832C26.7434 49.1732 26.6234 48.8832 26.4334 48.6032C26.2434 48.3232 26.0134 48.0732 25.7334 47.8432L26.4034 46.8832C27.2434 47.6132 27.7334 48.4132 27.8634 49.3032C27.9934 50.1832 27.7434 51.0932 27.1034 52.0132C26.7134 52.5732 26.2734 52.9932 25.7934 53.2732C25.3134 53.5532 24.8034 53.7232 24.2734 53.7632C23.7434 53.8032 23.2034 53.7332 22.6534 53.5532C22.1034 53.3732 21.5634 53.0932 21.0334 52.7332C20.5134 52.3632 20.0634 51.9532 19.7134 51.4832C19.3634 51.0132 19.1034 50.5132 18.9634 49.9932C18.8234 49.4732 18.7934 48.9232 18.8934 48.3532C18.9934 47.7832 19.2334 47.2332 19.6234 46.6732C19.8834 46.2932 20.1834 45.9732 20.5234 45.7132C20.8634 45.4532 21.2134 45.2532 21.5934 45.1232C21.9734 44.9932 22.3634 44.9532 22.7834 44.9732C23.1934 45.0032 23.6134 45.1232 24.0334 45.3332L23.3634 46.2932C22.7834 46.0532 22.2334 46.0232 21.7234 46.2132Z" fill="black"/>
<path d="M25.0531 44.0332C24.7431 43.5432 24.5331 43.0232 24.4331 42.4832C24.3331 41.9432 24.3531 41.3832 24.4931 40.8232C24.6331 40.2532 24.9331 39.7032 25.3731 39.1732C25.8231 38.6432 26.3131 38.2532 26.8431 38.0132C27.3731 37.7732 27.9131 37.6532 28.4731 37.6632C29.0231 37.6632 29.5731 37.7832 30.1131 38.0032C30.6531 38.2232 31.1531 38.5232 31.6031 38.9132C32.0531 39.3032 32.4431 39.7332 32.7631 40.2232C33.0731 40.7132 33.2831 41.2332 33.3831 41.7732C33.4831 42.3132 33.4631 42.8732 33.3131 43.4332C33.1631 43.9932 32.8731 44.5432 32.4231 45.0832C31.9731 45.6132 31.4831 46.0032 30.9631 46.2432C30.4331 46.4832 29.8931 46.6032 29.3431 46.6032C28.7931 46.6032 28.2431 46.4932 27.7031 46.2732C27.1631 46.0532 26.6631 45.7532 26.2031 45.3632C25.7431 44.9732 25.3631 44.5232 25.0531 44.0332ZM28.0731 45.1632C28.4731 45.3532 28.8931 45.4632 29.3131 45.4932C29.7331 45.5232 30.1531 45.4632 30.5531 45.3032C30.9631 45.1432 31.3331 44.8532 31.6731 44.4532C32.0131 44.0532 32.2331 43.6232 32.3131 43.1932C32.4031 42.7632 32.3931 42.3432 32.2831 41.9332C32.1731 41.5232 31.9931 41.1332 31.7431 40.7732C31.4831 40.4132 31.1931 40.0832 30.8531 39.8032C30.5131 39.5232 30.1431 39.2832 29.7431 39.0932C29.3431 38.9032 28.9231 38.7932 28.5031 38.7632C28.0831 38.7332 27.6631 38.7932 27.2631 38.9532C26.8531 39.1132 26.4831 39.4032 26.1431 39.8032C25.8031 40.2032 25.5831 40.6332 25.5031 41.0632C25.4131 41.4932 25.4231 41.9132 25.5331 42.3232C25.6431 42.7332 25.8231 43.1232 26.0731 43.4832C26.3331 43.8432 26.6231 44.1732 26.9631 44.4532C27.3031 44.7332 27.6731 44.9732 28.0731 45.1632Z" fill="black"/>
<path d="M39.713 36.0332C39.683 36.8532 39.283 37.6532 38.503 38.4432C37.703 39.2432 36.893 39.6832 36.063 39.7532C35.233 39.8232 34.403 39.4432 33.573 38.6132L29.603 34.6532L30.433 33.8232L34.403 37.7832C34.963 38.3432 35.533 38.6132 36.113 38.6032C36.693 38.5932 37.263 38.3132 37.823 37.7532C38.353 37.2232 38.613 36.6832 38.593 36.1132C38.583 35.5532 38.293 34.9932 37.743 34.4332L33.773 30.4732L34.603 29.6432L38.573 33.6032C39.353 34.4032 39.743 35.2132 39.713 36.0332Z" fill="black"/>
<path d="M39.513 25.3632C40.153 24.8232 40.783 24.5532 41.403 24.5632C42.023 24.5732 42.573 24.8432 43.033 25.3932C43.373 25.8032 43.583 26.2332 43.663 26.6932C43.733 27.1532 43.623 27.6132 43.313 28.0732L43.333 28.0932C43.563 27.9632 43.773 27.8932 43.963 27.8832C44.153 27.8732 44.343 27.8932 44.523 27.9532C44.703 28.0132 44.863 28.1032 45.033 28.2232C45.203 28.3432 45.353 28.4732 45.513 28.6232C45.663 28.7732 45.813 28.9332 45.963 29.0932C46.113 29.2532 46.273 29.4132 46.433 29.5532C46.593 29.6932 46.763 29.8232 46.933 29.9232C47.103 30.0332 47.283 30.1032 47.473 30.1332L46.473 30.9732C46.353 30.9532 46.233 30.9032 46.103 30.8032C45.983 30.7032 45.853 30.5832 45.723 30.4432C45.593 30.3032 45.453 30.1532 45.303 29.9832C45.153 29.8232 44.993 29.6732 44.823 29.5332C44.663 29.3932 44.493 29.2632 44.333 29.1532C44.173 29.0432 44.003 28.9632 43.833 28.9232C43.663 28.8832 43.483 28.8832 43.293 28.9332C43.103 28.9832 42.903 29.0932 42.683 29.2832L40.503 31.1232L42.923 33.9832L42.033 34.7332L36.353 28.0332L39.513 25.3632ZM42.283 28.2432C42.443 28.0532 42.553 27.8532 42.623 27.6432C42.693 27.4332 42.693 27.2132 42.653 26.9932C42.603 26.7732 42.483 26.5332 42.273 26.2932C41.983 25.9532 41.663 25.7632 41.293 25.7032C40.923 25.6532 40.533 25.8032 40.113 26.1532L37.903 28.0332L39.883 30.3732L41.743 28.8032C41.933 28.6132 42.123 28.4332 42.283 28.2432Z" fill="black"/>
<path d="M47.5431 20.7232C47.0631 20.7232 46.5731 20.8932 46.0831 21.2532C45.8831 21.3932 45.7031 21.5532 45.5331 21.7332C45.3731 21.9132 45.2431 22.1032 45.1631 22.3032C45.0831 22.5032 45.0531 22.7132 45.0731 22.9332C45.0931 23.1532 45.1931 23.3832 45.3631 23.6132C45.5231 23.8332 45.7131 23.9632 45.9431 24.0032C46.1731 24.0432 46.4231 24.0332 46.7031 23.9632C46.9831 23.8932 47.2731 23.7932 47.5931 23.6532C47.9131 23.5132 48.2331 23.3732 48.5631 23.2332C48.8931 23.0932 49.2331 22.9732 49.5631 22.8732C49.8931 22.7732 50.2331 22.7132 50.5631 22.7132C50.8931 22.7132 51.2031 22.7832 51.5031 22.9232C51.8031 23.0632 52.0731 23.3132 52.3331 23.6632C52.6031 24.0432 52.7531 24.4332 52.7831 24.8232C52.8131 25.2132 52.7431 25.5932 52.6031 25.9532C52.4631 26.3132 52.2531 26.6532 51.9731 26.9632C51.7031 27.2732 51.3931 27.5532 51.0731 27.7832C50.6731 28.0732 50.2631 28.2932 49.8331 28.4532C49.4031 28.6132 48.9831 28.6832 48.5631 28.6732C48.1431 28.6632 47.7431 28.5532 47.3631 28.3532C46.9831 28.1532 46.6331 27.8332 46.3231 27.4032L47.2231 26.7532C47.4431 27.0532 47.6831 27.2732 47.9531 27.4032C48.2231 27.5332 48.5031 27.6032 48.7931 27.6032C49.0831 27.6032 49.3831 27.5532 49.6831 27.4332C49.9831 27.3132 50.2631 27.1632 50.5331 26.9732C50.7431 26.8232 50.9431 26.6432 51.1331 26.4532C51.3231 26.2532 51.4631 26.0532 51.5731 25.8332C51.6731 25.6132 51.7231 25.3832 51.7131 25.1332C51.7031 24.8932 51.6031 24.6432 51.4131 24.3832C51.2331 24.1332 51.0231 23.9832 50.7831 23.9232C50.5431 23.8632 50.2831 23.8632 49.9931 23.9232C49.7031 23.9832 49.4031 24.0832 49.0931 24.2132C48.7731 24.3532 48.4531 24.4832 48.1231 24.6332C47.7931 24.7832 47.4631 24.9032 47.1331 25.0132C46.8031 25.1232 46.4731 25.1932 46.1631 25.2132C45.8531 25.2332 45.5531 25.1832 45.2631 25.0532C44.9731 24.9332 44.7131 24.7032 44.4831 24.3832C44.2231 24.0232 44.0731 23.6632 44.0331 23.2932C43.9931 22.9232 44.0331 22.5732 44.1531 22.2232C44.2731 21.8832 44.4631 21.5532 44.7131 21.2432C44.9631 20.9332 45.2531 20.6632 45.5731 20.4332C45.9431 20.1732 46.3131 19.9732 46.6831 19.8332C47.0631 19.6932 47.4331 19.6332 47.8031 19.6532C48.1731 19.6732 48.5331 19.7732 48.8731 19.9532C49.2131 20.1432 49.5331 20.4232 49.8231 20.8032L48.9231 21.4532C48.4731 20.9632 48.0231 20.7332 47.5431 20.7232Z" fill="black"/>
<path d="M55.3633 14.3032L55.8733 15.1432L51.6933 17.6932L53.1533 20.0732L57.0433 17.6932L57.5533 18.5332L53.6633 20.9132L55.2433 23.5032L59.4533 20.9332L59.9633 21.7732L54.7533 24.9532L50.1733 17.4632L55.3633 14.3032Z" fill="black"/>
<path d="M59.8634 12.9632L59.4434 12.0732L65.7834 9.05322L66.2034 9.94322L63.5634 11.2032L66.9134 18.2432L65.8534 18.7432L62.5034 11.7032L59.8634 12.9632Z" fill="black"/>
<path d="M70.983 6.99318C71.763 6.69318 72.443 6.64318 73.033 6.86318C73.623 7.07318 74.043 7.51318 74.303 8.18318C74.493 8.68318 74.553 9.16318 74.473 9.62318C74.393 10.0832 74.133 10.4832 73.683 10.8132L73.693 10.8332C73.943 10.7832 74.173 10.7932 74.363 10.8432C74.553 10.8932 74.723 10.9732 74.863 11.0932C75.003 11.2132 75.133 11.3532 75.253 11.5132C75.363 11.6832 75.473 11.8632 75.573 12.0532C75.663 12.2432 75.753 12.4432 75.843 12.6432C75.933 12.8432 76.033 13.0432 76.133 13.2332C76.233 13.4232 76.363 13.5932 76.483 13.7532C76.613 13.9132 76.753 14.0332 76.923 14.1332L75.703 14.6032C75.593 14.5532 75.493 14.4532 75.413 14.3232C75.333 14.1932 75.253 14.0332 75.173 13.8532C75.093 13.6732 75.013 13.4832 74.923 13.2832C74.833 13.0832 74.733 12.8832 74.623 12.7032C74.513 12.5132 74.403 12.3432 74.293 12.1832C74.173 12.0232 74.043 11.8932 73.893 11.7932C73.743 11.6932 73.573 11.6432 73.383 11.6232C73.193 11.6032 72.963 11.6432 72.693 11.7532L70.033 12.7832L71.383 16.2832L70.293 16.7032L67.123 8.51318L70.983 6.99318ZM72.653 10.6232C72.863 10.4932 73.043 10.3432 73.173 10.1632C73.303 9.98318 73.383 9.78318 73.413 9.55318C73.443 9.32318 73.403 9.06318 73.283 8.76318C73.123 8.35318 72.883 8.05318 72.553 7.88318C72.223 7.71318 71.803 7.72318 71.293 7.92318L68.583 8.97318L69.683 11.8332L71.953 10.9532C72.203 10.8632 72.443 10.7532 72.653 10.6232Z" fill="black"/>
<path d="M79.0334 4.31323L84.8234 11.7532L83.5834 12.1232L81.9134 9.86323L78.3534 10.9232L78.1634 13.7332L77.0234 14.0732L77.7934 4.68323L79.0334 4.31323ZM81.2834 9.02323L78.7134 5.51323L78.6934 5.52323L78.4334 9.87323L81.2834 9.02323Z" fill="black"/>
<path d="M84.7132 2.82324L86.7532 11.3632L85.6132 11.6332L83.5732 3.09324L84.7132 2.82324Z" fill="black"/>
<path d="M88.1031 2.08319L89.5431 9.74319L94.1131 8.88319L94.2931 9.85319L88.5731 10.9232L86.9531 2.30319L88.1031 2.08319Z" fill="black"/>
<path d="M100.153 0.323242L100.263 1.30324L95.4033 1.86324L95.7233 4.63324L100.253 4.10324L100.363 5.08324L95.8333 5.61324L96.1833 8.63324L101.083 8.06324L101.193 9.04324L95.1333 9.75324L94.1133 1.03324L100.153 0.323242Z" fill="black"/>
<path d="M106.233 0.00321429C107.063 -0.0267857 107.733 0.153214 108.213 0.543214C108.693 0.933214 108.963 1.48321 108.983 2.20321C109.003 2.73321 108.903 3.20321 108.673 3.62321C108.443 4.03321 108.073 4.32321 107.543 4.49321V4.51321C107.803 4.55321 108.013 4.62321 108.173 4.73321C108.333 4.84321 108.473 4.97321 108.573 5.13321C108.673 5.29321 108.753 5.46321 108.803 5.66321C108.853 5.86321 108.903 6.06321 108.933 6.27321C108.963 6.48321 108.983 6.70321 108.993 6.92321C109.013 7.14321 109.043 7.36321 109.083 7.57321C109.123 7.78321 109.183 7.98321 109.253 8.17321C109.323 8.36321 109.423 8.53321 109.553 8.67321L108.253 8.72321C108.163 8.63321 108.103 8.51321 108.073 8.36321C108.033 8.21321 108.013 8.03321 107.993 7.84321C107.973 7.65321 107.963 7.44321 107.943 7.22321C107.923 7.00321 107.893 6.78321 107.843 6.57321C107.803 6.36321 107.753 6.16321 107.693 5.97321C107.633 5.78321 107.553 5.61321 107.443 5.48321C107.333 5.35321 107.183 5.23321 107.013 5.15321C106.843 5.07321 106.603 5.04321 106.323 5.05321L103.473 5.16321L103.623 8.91321L102.453 8.96321L102.103 0.183214L106.233 0.00321429ZM106.633 3.98321C106.873 3.93321 107.093 3.84321 107.273 3.71321C107.453 3.58321 107.593 3.42321 107.693 3.21321C107.793 3.00321 107.843 2.74321 107.833 2.42321C107.813 1.98321 107.673 1.62321 107.423 1.35321C107.163 1.08321 106.763 0.963214 106.213 0.983214L103.313 1.09321L103.433 4.15321L105.863 4.05321C106.133 4.06321 106.393 4.03321 106.633 3.98321Z" fill="black"/>
<path d="M117.523 5.09319L117.463 6.07319L113.913 5.87319L113.973 4.89319L117.523 5.09319Z" fill="black"/>
</svg>
